  0
SECTION
  2
HEADER
  9
$ACADVER
  1
AC1021
  9
$ACADMAINTVER
 70
     1
  9
$DWGCODEPAGE
  3
ANSI_1252
  9
$LASTSAVEDBY
  1
ThoPhi
  9
$INSBASE
 10
0.0
 20
0.0
 30
0.0
  9
$EXTMIN
 10
9.618840184399999
 20
-44.59005231843295
 30
0.0
  9
$EXTMAX
 10
445.6698449790283
 20
419.3135196848904
 30
0.0
  9
$LIMMIN
 10
0.0
 20
0.0
  9
$LIMMAX
 10
594.0
 20
420.0
  9
$ORTHOMODE
 70
     0
  9
$REGENMODE
 70
     1
  9
$FILLMODE
 70
     1
  9
$QTEXTMODE
 70
     0
  9
$MIRRTEXT
 70
     1
  9
$LTSCALE
 40
1.0
  9
$ATTMODE
 70
     1
  9
$TEXTSIZE
 40
3.5
  9
$TRACEWID
 40
1.0
  9
$TEXTSTYLE
  7
Standard
  9
$CLAYER
  8
0
  9
$CELTYPE
  6
ByLayer
  9
$CECOLOR
 62
   256
  9
$CELTSCALE
 40
1.0
  9
$DISPSILH
 70
     0
  9
$DIMSCALE
 40
1.0
  9
$DIMASZ
 40
3.302
  9
$DIMEXO
 40
1.0
  9
$DIMDLI
 40
3.75
  9
$DIMRND
 40
0.0
  9
$DIMDLE
 40
0.0
  9
$DIMEXE
 40
1.0
  9
$DIMTP
 40
0.0
  9
$DIMTM
 40
0.0
  9
$DIMTXT
 40
3.5
  9
$DIMCEN
 40
2.5
  9
$DIMTSZ
 40
0.0
  9
$DIMTOL
 70
     0
  9
$DIMLIM
 70
     0
  9
$DIMTIH
 70
     1
  9
$DIMTOH
 70
     1
  9
$DIMSE1
 70
     0
  9
$DIMSE2
 70
     0
  9
$DIMTAD
 70
     1
  9
$DIMZIN
 70
     0
  9
$DIMBLK
  1

  9
$DIMASO
 70
     1
  9
$DIMSHO
 70
     1
  9
$DIMPOST
  1

  9
$DIMAPOST
  1

  9
$DIMALT
 70
     0
  9
$DIMALTD
 70
     3
  9
$DIMALTF
 40
0.0393700787
  9
$DIMLFAC
 40
1.0
  9
$DIMTOFL
 70
     1
  9
$DIMTVP
 40
0.0
  9
$DIMTIX
 70
     0
  9
$DIMSOXD
 70
     0
  9
$DIMSAH
 70
     0
  9
$DIMBLK1
  1

  9
$DIMBLK2
  1

  9
$DIMSTYLE
  2
ISO-25
  9
$DIMCLRD
 70
     0
  9
$DIMCLRE
 70
     0
  9
$DIMCLRT
 70
     0
  9
$DIMTFAC
 40
1.0
  9
$DIMGAP
 40
1.524
  9
$DIMJUST
 70
     0
  9
$DIMSD1
 70
     0
  9
$DIMSD2
 70
     0
  9
$DIMTOLJ
 70
     0
  9
$DIMTZIN
 70
     0
  9
$DIMALTZ
 70
     0
  9
$DIMALTTZ
 70
     0
  9
$DIMUPT
 70
     0
  9
$DIMDEC
 70
     2
  9
$DIMTDEC
 70
     2
  9
$DIMALTU
 70
     2
  9
$DIMALTTD
 70
     3
  9
$DIMTXSTY
  7
Standard
  9
$DIMAUNIT
 70
     0
  9
$DIMADEC
 70
     2
  9
$DIMALTRND
 40
0.0
  9
$DIMAZIN
 70
     0
  9
$DIMDSEP
 70
    44
  9
$DIMATFIT
 70
     3
  9
$DIMFRAC
 70
     0
  9
$DIMLDRBLK
  1

  9
$DIMLUNIT
 70
     2
  9
$DIMLWD
 70
    -2
  9
$DIMLWE
 70
    -2
  9
$DIMTMOVE
 70
     0
  9
$DIMFXL
 40
1.0
  9
$DIMFXLON
 70
     0
  9
$DIMJOGANG
 40
0.7853981633974483
  9
$DIMTFILL
 70
     0
  9
$DIMTFILLCLR
 70
     0
  9
$DIMARCSYM
 70
     0
  9
$DIMLTYPE
  6

  9
$DIMLTEX1
  6

  9
$DIMLTEX2
  6

  9
$LUNITS
 70
     2
  9
$LUPREC
 70
     2
  9
$SKETCHINC
 40
1.0
  9
$FILLETRAD
 40
10.0
  9
$AUNITS
 70
     0
  9
$AUPREC
 70
     2
  9
$MENU
  1
.
  9
$ELEVATION
 40
0.0
  9
$PELEVATION
 40
0.0
  9
$THICKNESS
 40
0.0
  9
$LIMCHECK
 70
     0
  9
$CHAMFERA
 40
10.0
  9
$CHAMFERB
 40
10.0
  9
$CHAMFERC
 40
20.0
  9
$CHAMFERD
 40
0.0
  9
$SKPOLY
 70
     0
  9
$TDCREATE
 40
2456224.764274931
  9
$TDUCREATE
 40
2456224.472608264
  9
$TDUPDATE
 40
2456760.489756400
  9
$TDUUPDATE
 40
2456760.198089734
  9
$TDINDWG
 40
0.0005870255
  9
$TDUSRTIMER
 40
0.0005860532
  9
$USRTIMER
 70
     1
  9
$ANGBASE
 50
0.0
  9
$ANGDIR
 70
     0
  9
$PDMODE
 70
     0
  9
$PDSIZE
 40
-1.0
  9
$PLINEWID
 40
0.0
  9
$SPLFRAME
 70
     0
  9
$SPLINETYPE
 70
     6
  9
$SPLINESEGS
 70
     8
  9
$HANDSEED
  5
223
  9
$SURFTAB1
 70
     6
  9
$SURFTAB2
 70
     6
  9
$SURFTYPE
 70
     6
  9
$SURFU
 70
     6
  9
$SURFV
 70
     6
  9
$UCSBASE
  2

  9
$UCSNAME
  2

  9
$UCSORG
 10
0.0
 20
0.0
 30
0.0
  9
$UCSXDIR
 10
1.0
 20
0.0
 30
0.0
  9
$UCSYDIR
 10
0.0
 20
1.0
 30
0.0
  9
$UCSORTHOREF
  2

  9
$UCSORTHOVIEW
 70
     0
  9
$UCSORGTOP
 10
0.0
 20
0.0
 30
0.0
  9
$UCSORGBOTTOM
 10
0.0
 20
0.0
 30
0.0
  9
$UCSORGLEFT
 10
0.0
 20
0.0
 30
0.0
  9
$UCSORGRIGHT
 10
0.0
 20
0.0
 30
0.0
  9
$UCSORGFRONT
 10
0.0
 20
0.0
 30
0.0
  9
$UCSORGBACK
 10
0.0
 20
0.0
 30
0.0
  9
$PUCSBASE
  2

  9
$PUCSNAME
  2

  9
$PUCSORG
 10
0.0
 20
0.0
 30
0.0
  9
$PUCSXDIR
 10
1.0
 20
0.0
 30
0.0
  9
$PUCSYDIR
 10
0.0
 20
1.0
 30
0.0
  9
$PUCSORTHOREF
  2

  9
$PUCSORTHOVIEW
 70
     0
  9
$PUCSORGTOP
 10
0.0
 20
0.0
 30
0.0
  9
$PUCSORGBOTTOM
 10
0.0
 20
0.0
 30
0.0
  9
$PUCSORGLEFT
 10
0.0
 20
0.0
 30
0.0
  9
$PUCSORGRIGHT
 10
0.0
 20
0.0
 30
0.0
  9
$PUCSORGFRONT
 10
0.0
 20
0.0
 30
0.0
  9
$PUCSORGBACK
 10
0.0
 20
0.0
 30
0.0
  9
$USERI1
 70
     0
  9
$USERI2
 70
     0
  9
$USERI3
 70
     0
  9
$USERI4
 70
     0
  9
$USERI5
 70
     0
  9
$USERR1
 40
0.0
  9
$USERR2
 40
0.0
  9
$USERR3
 40
0.0
  9
$USERR4
 40
0.0
  9
$USERR5
 40
0.0
  9
$WORLDVIEW
 70
     1
  9
$SHADEDGE
 70
     3
  9
$SHADEDIF
 70
    70
  9
$TILEMODE
 70
     1
  9
$MAXACTVP
 70
    64
  9
$PINSBASE
 10
0.0
 20
0.0
 30
0.0
  9
$PLIMCHECK
 70
     0
  9
$PEXTMIN
 10
1.000000000000000E+20
 20
1.000000000000000E+20
 30
1.000000000000000E+20
  9
$PEXTMAX
 10
-1.000000000000000E+20
 20
-1.000000000000000E+20
 30
-1.000000000000000E+20
  9
$PLIMMIN
 10
0.0
 20
0.0
  9
$PLIMMAX
 10
420.0
 20
297.0
  9
$UNITMODE
 70
     0
  9
$VISRETAIN
 70
     1
  9
$PLINEGEN
 70
     0
  9
$PSLTSCALE
 70
     1
  9
$TREEDEPTH
 70
  3020
  9
$CMLSTYLE
  2
Standard
  9
$CMLJUST
 70
     0
  9
$CMLSCALE
 40
20.0
  9
$PROXYGRAPHICS
 70
     1
  9
$MEASUREMENT
 70
     1
  9
$CELWEIGHT
370
    -1
  9
$ENDCAPS
280
     0
  9
$JOINSTYLE
280
     0
  9
$LWDISPLAY
290
     1
  9
$INSUNITS
 70
     4
  9
$HYPERLINKBASE
  1

  9
$STYLESHEET
  1

  9
$XEDIT
290
     1
  9
$CEPSNTYPE
380
     0
  9
$PSTYLEMODE
290
     1
  9
$FINGERPRINTGUID
  2
{E6F701D3-C069-41B3-AF73-81ABF3BFDBB3}
  9
$VERSIONGUID
  2
{18D0F47A-956F-4201-9ED2-19E3C8FF6115}
  9
$EXTNAMES
290
     1
  9
$PSVPSCALE
 40
0.0
  9
$OLESTARTUP
290
     0
  9
$SORTENTS
280
   127
  9
$INDEXCTL
280
     0
  9
$HIDETEXT
280
     0
  9
$XCLIPFRAME
290
     0
  9
$HALOGAP
280
     0
  9
$OBSCOLOR
 70
   257
  9
$OBSLTYPE
280
     0
  9
$INTERSECTIONDISPLAY
280
     0
  9
$INTERSECTIONCOLOR
 70
   257
  9
$DIMASSOC
280
     1
  9
$PROJECTNAME
  1

  9
$CAMERADISPLAY
290
     0
  9
$LENSLENGTH
 40
50.0
  9
$CAMERAHEIGHT
 40
0.0
  9
$STEPSPERSEC
 40
2.0
  9
$STEPSIZE
 40
6.0
  9
$3DDWFPREC
 40
2.0
  9
$PSOLWIDTH
 40
0.25
  9
$PSOLHEIGHT
 40
4.0
  9
$LOFTANG1
 40
1.570796326794896
  9
$LOFTANG2
 40
1.570796326794896
  9
$LOFTMAG1
 40
0.0
  9
$LOFTMAG2
 40
0.0
  9
$LOFTPARAM
 70
     7
  9
$LOFTNORMALS
280
     1
  9
$LATITUDE
 40
37.795
  9
$LONGITUDE
 40
-122.394
  9
$NORTHDIRECTION
 40
0.0
  9
$TIMEZONE
 70
 -8000
  9
$LIGHTGLYPHDISPLAY
280
     1
  9
$TILEMODELIGHTSYNCH
280
     1
  9
$CMATERIAL
347
1AA
  9
$SOLIDHIST
280
     1
  9
$SHOWHIST
280
     1
  9
$DWFFRAME
280
     2
  9
$DGNFRAME
280
     0
  9
$REALWORLDSCALE
290
     1
  9
$INTERFERECOLOR
 62
     1
  9
$INTERFEREOBJVS
345
1B7
  9
$INTERFEREVPVS
346
1B4
  9
$CSHADOW
280
     0
  9
$SHADOWPLANELOCATION
 40
0.0
  0
ENDSEC
  0
SECTION
  2
CLASSES
  0
CLASS
  1
ACDBDICTIONARYWDFLT
  2
AcDbDictionaryWithDefault
  3
ObjectDBX Classes
 90
        0
 91
        1
280
     0
281
     0
  0
CLASS
  1
VISUALSTYLE
  2
AcDbVisualStyle
  3
ObjectDBX Classes
 90
     4095
 91
       16
280
     0
281
     0
  0
CLASS
  1
MATERIAL
  2
AcDbMaterial
  3
ObjectDBX Classes
 90
     1024
 91
        3
280
     0
281
     0
  0
CLASS
  1
TABLESTYLE
  2
AcDbTableStyle
  3
ObjectDBX Classes
 90
     4095
 91
        1
280
     0
281
     0
  0
CLASS
  1
DICTIONARYVAR
  2
AcDbDictionaryVar
  3
ObjectDBX Classes
 90
        0
 91
        1
280
     0
281
     0
  0
ENDSEC
  0
SECTION
  2
TABLES
  0
TABLE
  2
VPORT
  5
8
330
0
100
AcDbSymbolTable
 70
     1
  0
VPORT
  5
29
330
8
100
AcDbSymbolTableRecord
100
AcDbViewportTableRecord
  2
*Active
 70
     0
 10
0.0
 20
0.0
 11
1.0
 21
1.0
 12
838.1792491292392
 22
281.3187863783156
 13
0.0
 23
0.0
 14
10.0
 24
10.0
 15
10.0
 25
10.0
 16
0.0
 26
0.0
 36
1.0
 17
0.0
 27
0.0
 37
0.0
 40
1354.705316857165
 41
2.092127303182579
 42
50.0
 43
0.0
 44
0.0
 50
0.0
 51
0.0
 71
     0
 72
  2000
 73
     1
 74
     3
 75
     0
 76
     0
 77
     0
 78
     0
281
     0
 65
     1
110
0.0
120
0.0
130
0.0
111
1.0
121
0.0
131
0.0
112
0.0
122
1.0
132
0.0
 79
     0
146
0.0
348
1B3
 60
     3
 61
     5
292
     1
282
     1
141
0.0
142
0.0
 63
   250
421
  3355443
  0
ENDTAB
  0
TABLE
  2
LTYPE
  5
5
330
0
100
AcDbSymbolTable
 70
     6
  0
LTYPE
  5
14
330
5
100
AcDbSymbolTableRecord
100
AcDbLinetypeTableRecord
  2
ByBlock
 70
     0
  3

 72
    65
 73
     0
 40
0.0
  0
LTYPE
  5
15
330
5
100
AcDbSymbolTableRecord
100
AcDbLinetypeTableRecord
  2
ByLayer
 70
     0
  3

 72
    65
 73
     0
 40
0.0
  0
LTYPE
  5
16
330
5
100
AcDbSymbolTableRecord
100
AcDbLinetypeTableRecord
  2
Continuous
 70
     0
  3
Solid line
 72
    65
 73
     0
 40
0.0
  0
LTYPE
  5
3F
330
5
100
AcDbSymbolTableRecord
100
AcDbLinetypeTableRecord
  2
HIDDEN
 70
     0
  3
Hidden __ __ __ __ __ __ __ __ __ __ __ __ __ __
 72
    65
 73
     2
 40
1.905
 49
1.27
 74
     0
 49
-0.635
 74
     0
  0
LTYPE
  5
40
330
5
100
AcDbSymbolTableRecord
100
AcDbLinetypeTableRecord
  2
PHANTOM
 70
     0
  3
Phantom ______  __  __  ______  __  __  ______
 72
    65
 73
     6
 40
12.7
 49
6.349999999999999
 74
     0
 49
-1.27
 74
     0
 49
1.27
 74
     0
 49
-1.27
 74
     0
 49
1.27
 74
     0
 49
-1.27
 74
     0
  0
LTYPE
  5
41
330
5
100
AcDbSymbolTableRecord
100
AcDbLinetypeTableRecord
  2
CENTER
 70
     0
  3
Center ____ _ ____ _ ____ _ ____ _ ____ _ ____
 72
    65
 73
     4
 40
10.16
 49
6.349999999999999
 74
     0
 49
-1.27
 74
     0
 49
1.27
 74
     0
 49
-1.27
 74
     0
  0
LTYPE
  5
42
330
5
100
AcDbSymbolTableRecord
100
AcDbLinetypeTableRecord
  2
CENTERX2
 70
     0
  3
Center (2x) ________  __  ________  __  _____
 72
    65
 73
     4
 40
20.32
 49
12.7
 74
     0
 49
-2.54
 74
     0
 49
2.54
 74
     0
 49
-2.54
 74
     0
  0
LTYPE
  5
43
330
5
100
AcDbSymbolTableRecord
100
AcDbLinetypeTableRecord
  2
DOT2
 70
     0
  3
Dot (.5x) ........................................
 72
    65
 73
     2
 40
0.635
 49
0.0
 74
     0
 49
-0.635
 74
     0
  0
ENDTAB
  0
TABLE
  2
LAYER
  5
2
330
0
100
AcDbSymbolTable
 70
     1
  0
LAYER
  5
10
330
2
100
AcDbSymbolTableRecord
100
AcDbLayerTableRecord
  2
0
 70
     0
 62
     7
  6
Continuous
370
    -3
390
F
347
1AC
  0
ENDTAB
  0
TABLE
  2
STYLE
  5
3
330
0
100
AcDbSymbolTable
 70
     1
  0
STYLE
  5
11
330
3
100
AcDbSymbolTableRecord
100
AcDbTextStyleTableRecord
  2
Standard
 70
     0
 40
0.0
 41
1.0
 50
0.0
 71
     0
 42
3.5
  3
txt
  4

  0
ENDTAB
  0
TABLE
  2
VIEW
  5
6
330
0
100
AcDbSymbolTable
 70
     0
  0
ENDTAB
  0
TABLE
  2
UCS
  5
7
330
0
100
AcDbSymbolTable
 70
     0
  0
ENDTAB
  0
TABLE
  2
APPID
  5
9
330
0
100
AcDbSymbolTable
 70
     1
  0
APPID
  5
12
330
9
100
AcDbSymbolTableRecord
100
AcDbRegAppTableRecord
  2
ACAD
 70
     0
  0
ENDTAB
  0
TABLE
  2
DIMSTYLE
  5
A
330
0
100
AcDbSymbolTable
 70
     1
100
AcDbDimStyleTable
 71
     0
  0
DIMSTYLE
105
27
330
A
100
AcDbSymbolTableRecord
100
AcDbDimStyleTableRecord
  2
ISO-25
 70
     0
 41
2.5
 42
0.625
 43
3.75
 44
1.25
 73
     0
 74
     0
 77
     1
 78
     8
140
2.5
141
2.5
143
0.0393700787
147
0.625
171
     3
172
     1
271
     2
272
     2
274
     3
278
    44
283
     0
284
     8
340
11
  0
ENDTAB
  0
TABLE
  2
BLOCK_RECORD
  5
1
330
0
100
AcDbSymbolTable
 70
     1
  0
BLOCK_RECORD
  5
1F
330
1
100
AcDbSymbolTableRecord
100
AcDbBlockTableRecord
  2
*Model_Space
340
22
 70
     0
280
     1
281
     0
  0
BLOCK_RECORD
  5
1B
330
1
100
AcDbSymbolTableRecord
100
AcDbBlockTableRecord
  2
*Paper_Space
340
1E
 70
     0
280
     1
281
     0
  0
BLOCK_RECORD
  5
23
330
1
100
AcDbSymbolTableRecord
100
AcDbBlockTableRecord
  2
*Paper_Space0
340
26
 70
     0
280
     1
281
     0
  0
ENDTAB
  0
ENDSEC
  0
SECTION
  2
BLOCKS
  0
BLOCK
  5
20
330
1F
100
AcDbEntity
  8
0
100
AcDbBlockBegin
  2
*Model_Space
 70
     0
 10
0.0
 20
0.0
 30
0.0
  3
*Model_Space
  1

  0
ENDBLK
  5
21
330
1F
100
AcDbEntity
  8
0
100
AcDbBlockEnd
  0
BLOCK
  5
1C
330
1B
100
AcDbEntity
 67
     1
  8
0
100
AcDbBlockBegin
  2
*Paper_Space
 70
     0
 10
0.0
 20
0.0
 30
0.0
  3
*Paper_Space
  1

  0
ENDBLK
  5
1D
330
1B
100
AcDbEntity
 67
     1
  8
0
100
AcDbBlockEnd
  0
BLOCK
  5
24
330
23
100
AcDbEntity
 67
     1
  8
0
100
AcDbBlockBegin
  2
*Paper_Space0
 70
     0
 10
0.0
 20
0.0
 30
0.0
  3
*Paper_Space0
  1

  0
ENDBLK
  5
25
330
23
100
AcDbEntity
 67
     1
  8
0
100
AcDbBlockEnd
  0
ENDSEC
  0
SECTION
  2
ENTITIES
  0
LINE
  5
44
330
1F
100
AcDbEntity
  8
0
  6
Continuous
 62
     7
370
    15
100
AcDbLine
 10
18.78104572049069
 20
148.6662877295903
 30
0.0
 11
11.01601336949069
 21
148.6662877295903
 31
0.0
  0
ARC
  5
45
330
1F
100
AcDbEntity
  8
0
  6
Continuous
 62
     7
370
    15
100
AcDbCircle
 10
20.16601217739069
 20
149.5162881766903
 30
0.0
 40
1.625000000000011
100
AcDbArc
 50
211.5388726535
 51
58.4611273465001
  0
LINE
  5
46
330
1F
100
AcDbEntity
  8
0
  6
Continuous
 62
     7
370
    15
100
AcDbLine
 10
21.01601128339069
 20
151.6662882213903
 30
0.0
 11
21.01601128339069
 21
150.9012514297903
 31
0.0
  0
LINE
  5
47
330
1F
100
AcDbEntity
  8
0
  6
Continuous
 62
     7
370
    15
100
AcDbLine
 10
51.01601247549069
 20
150.9012514297903
 30
0.0
 11
51.01601247549069
 21
151.6662882213903
 31
0.0
  0
ARC
  5
48
330
1F
100
AcDbEntity
  8
0
  6
Continuous
 62
     7
370
    15
100
AcDbCircle
 10
51.86601217739069
 20
149.5162881766903
 30
0.0
 40
1.625000000000006
100
AcDbArc
 50
121.5388726534999
 51
328.4611273464999
  0
LINE
  5
49
330
1F
100
AcDbEntity
  8
0
  6
Continuous
 62
     7
370
    15
100
AcDbLine
 10
88.7810478811907
 20
148.6662877295903
 30
0.0
 11
53.25097431299069
 21
148.6662877295903
 31
0.0
  0
ARC
  5
4A
330
1F
100
AcDbEntity
  8
0
  6
Continuous
 62
     7
370
    15
100
AcDbCircle
 10
90.16601217739069
 20
149.5162881766903
 30
0.0
 40
1.625000000000003
100
AcDbArc
 50
211.5388726535
 51
58.4611273465001
  0
LINE
  5
4B
330
1F
100
AcDbEntity
  8
0
  6
Continuous
 62
     7
370
    15
100
AcDbLine
 10
91.0160125126907
 20
151.6662882213903
 30
0.0
 11
91.0160125126907
 21
150.9012514297903
 31
0.0
  0
LINE
  5
4C
330
1F
100
AcDbEntity
  8
0
  6
Continuous
 62
     7
370
    15
100
AcDbLine
 10
121.0160118421907
 20
150.9012514297903
 30
0.0
 11
121.0160118421907
 21
151.6662882213903
 31
0.0
  0
ARC
  5
4D
330
1F
100
AcDbEntity
  8
0
  6
Continuous
 62
     7
370
    15
100
AcDbCircle
 10
121.8660121773907
 20
149.5162881766903
 30
0.0
 40
1.624999999999995
100
AcDbArc
 50
121.5388726534999
 51
328.4611273464999
  0
LINE
  5
4E
330
1F
100
AcDbEntity
  8
0
  6
Continuous
 62
     7
370
    15
100
AcDbLine
 10
158.7810500418907
 20
148.6662877295903
 30
0.0
 11
123.2509764736907
 21
148.6662877295903
 31
0.0
  0
ARC
  5
4F
330
1F
100
AcDbEntity
  8
0
  6
Continuous
 62
     7
370
    15
100
AcDbCircle
 10
160.1660121773907
 20
149.5162881766903
 30
0.0
 40
1.625000000000011
100
AcDbArc
 50
211.5388726535
 51
58.4611273465001
  0
LINE
  5
50
330
1F
100
AcDbEntity
  8
0
  6
Continuous
 62
     7
370
    15
100
AcDbLine
 10
161.0160118793907
 20
151.6662882213903
 30
0.0
 11
161.0160118793907
 21
150.9012514297903
 31
0.0
  0
LINE
  5
51
330
1F
100
AcDbEntity
  8
0
  6
Continuous
 62
     7
370
    15
100
AcDbLine
 10
191.0160130714907
 20
150.9012514297903
 30
0.0
 11
191.0160130714907
 21
151.6662882213903
 31
0.0
  0
ARC
  5
52
330
1F
100
AcDbEntity
  8
0
  6
Continuous
 62
     7
370
    15
100
AcDbCircle
 10
191.8660121773907
 20
149.5162881766903
 30
0.0
 40
1.625000000000014
100
AcDbArc
 50
121.5388726534999
 51
328.4611273464999
  0
LINE
  5
53
330
1F
100
AcDbEntity
  8
0
  6
Continuous
 62
     7
370
    15
100
AcDbLine
 10
201.0160109852907
 20
148.6662877295903
 30
0.0
 11
193.2509786342906
 21
148.6662877295903
 31
0.0
  0
LINE
  5
54
330
1F
100
AcDbEntity
  8
0
  6
Continuous
 62
     7
370
    15
100
AcDbLine
 10
201.0160109852907
 20
148.6662877295903
 30
0.0
 11
201.0160109852907
 21
108.6662886236903
 31
0.0
  0
LINE
  5
55
330
1F
100
AcDbEntity
  8
0
  6
Continuous
 62
     7
370
    15
100
AcDbLine
 10
193.2509786342906
 20
108.6662886236903
 30
0.0
 11
201.0160109852907
 21
108.6662886236903
 31
0.0
  0
ARC
  5
56
330
1F
100
AcDbEntity
  8
0
  6
Continuous
 62
     7
370
    15
100
AcDbCircle
 10
191.8660121773907
 20
107.8162881766903
 30
0.0
 40
1.625000000000011
100
AcDbArc
 50
31.53887265350007
 51
238.4611273465001
  0
LINE
  5
57
330
1F
100
AcDbEntity
  8
0
  6
Continuous
 62
     7
370
    15
100
AcDbLine
 10
191.0160130714907
 20
105.6662881319903
 30
0.0
 11
191.0160130714907
 21
106.4313249234903
 31
0.0
  0
LINE
  5
58
330
1F
100
AcDbEntity
  8
0
  6
Continuous
 62
     7
370
    15
100
AcDbLine
 10
161.0160118793907
 20
106.4313249234903
 30
0.0
 11
161.0160118793907
 21
105.6662881319903
 31
0.0
  0
ARC
  5
59
330
1F
100
AcDbEntity
  8
0
  6
Continuous
 62
     7
370
    15
100
AcDbCircle
 10
160.1660121773907
 20
107.8162881766903
 30
0.0
 40
1.625000000000007
100
AcDbArc
 50
301.5388726534999
 51
148.4611273464999
  0
LINE
  5
5A
330
1F
100
AcDbEntity
  8
0
  6
Continuous
 62
     7
370
    15
100
AcDbLine
 10
123.2509764736907
 20
108.6662886236903
 30
0.0
 11
158.7810500418907
 21
108.6662886236903
 31
0.0
  0
ARC
  5
5B
330
1F
100
AcDbEntity
  8
0
  6
Continuous
 62
     7
370
    15
100
AcDbCircle
 10
121.8660121773907
 20
107.8162881766903
 30
0.0
 40
1.625000000000008
100
AcDbArc
 50
31.53887265350007
 51
238.4611273465001
  0
LINE
  5
5C
330
1F
100
AcDbEntity
  8
0
  6
Continuous
 62
     7
370
    15
100
AcDbLine
 10
121.0160118421907
 20
105.6662881319903
 30
0.0
 11
121.0160118421907
 21
106.4313249234903
 31
0.0
  0
LINE
  5
5D
330
1F
100
AcDbEntity
  8
0
  6
Continuous
 62
     7
370
    15
100
AcDbLine
 10
91.0160125126907
 20
106.4313249234903
 30
0.0
 11
91.0160125126907
 21
105.6662881319903
 31
0.0
  0
ARC
  5
5E
330
1F
100
AcDbEntity
  8
0
  6
Continuous
 62
     7
370
    15
100
AcDbCircle
 10
90.16601217739069
 20
107.8162881766903
 30
0.0
 40
1.625000000000004
100
AcDbArc
 50
301.5388726534999
 51
148.4611273464999
  0
LINE
  5
5F
330
1F
100
AcDbEntity
  8
0
  6
Continuous
 62
     7
370
    15
100
AcDbLine
 10
53.25097431299069
 20
108.6662886236903
 30
0.0
 11
88.7810478811907
 21
108.6662886236903
 31
0.0
  0
ARC
  5
60
330
1F
100
AcDbEntity
  8
0
  6
Continuous
 62
     7
370
    15
100
AcDbCircle
 10
51.86601217739069
 20
107.8162881766903
 30
0.0
 40
1.625000000000011
100
AcDbArc
 50
31.53887265350007
 51
238.4611273465001
  0
LINE
  5
61
330
1F
100
AcDbEntity
  8
0
  6
Continuous
 62
     7
370
    15
100
AcDbLine
 10
51.01601247549069
 20
105.6662881319903
 30
0.0
 11
51.01601247549069
 21
106.4313249234903
 31
0.0
  0
LINE
  5
62
330
1F
100
AcDbEntity
  8
0
  6
Continuous
 62
     7
370
    15
100
AcDbLine
 10
21.01601128339069
 20
106.4313249234903
 30
0.0
 11
21.01601128339069
 21
105.6662881319903
 31
0.0
  0
ARC
  5
63
330
1F
100
AcDbEntity
  8
0
  6
Continuous
 62
     7
370
    15
100
AcDbCircle
 10
20.16601217739069
 20
107.8162881766903
 30
0.0
 40
1.625000000000004
100
AcDbArc
 50
301.5388726534999
 51
148.4611273464999
  0
LINE
  5
64
330
1F
100
AcDbEntity
  8
0
  6
Continuous
 62
     7
370
    15
100
AcDbLine
 10
11.01601336949069
 20
108.6662886236903
 30
0.0
 11
18.78104572049069
 21
108.6662886236903
 31
0.0
  0
LINE
  5
65
330
1F
100
AcDbEntity
  8
0
  6
Continuous
 62
     7
370
    15
100
AcDbLine
 10
11.01601336949069
 20
108.6662886236903
 30
0.0
 11
11.01601336949069
 21
148.6662877295903
 31
0.0
  0
LINE
  5
66
330
1F
100
AcDbEntity
  8
0
  6
Continuous
 62
     7
370
    15
100
AcDbLine
 10
21.01601128339069
 20
105.6662881319903
 30
0.0
 11
51.01601247549069
 21
105.6662881319903
 31
0.0
  0
LINE
  5
67
330
1F
100
AcDbEntity
  8
0
  6
Continuous
 62
     7
370
    15
100
AcDbLine
 10
191.0160130714907
 20
151.6662882213903
 30
0.0
 11
161.0160118793907
 21
151.6662882213903
 31
0.0
  0
LINE
  5
68
330
1F
100
AcDbEntity
  8
0
  6
Continuous
 62
     7
370
    15
100
AcDbLine
 10
51.01601247549069
 20
151.6662882213903
 30
0.0
 11
21.01601128339069
 21
151.6662882213903
 31
0.0
  0
LINE
  5
69
330
1F
100
AcDbEntity
  8
0
  6
Continuous
 62
     7
370
    15
100
AcDbLine
 10
121.0160118421907
 20
151.6662882213903
 30
0.0
 11
91.0160125126907
 21
151.6662882213903
 31
0.0
  0
LINE
  5
6A
330
1F
100
AcDbEntity
  8
0
  6
Continuous
 62
     7
370
    15
100
AcDbLine
 10
161.0160118793907
 20
105.6662881319903
 30
0.0
 11
191.0160130714907
 21
105.6662881319903
 31
0.0
  0
LINE
  5
6B
330
1F
100
AcDbEntity
  8
0
  6
Continuous
 62
     7
370
    15
100
AcDbLine
 10
91.0160125126907
 20
105.6662881319903
 30
0.0
 11
121.0160118421907
 21
105.6662881319903
 31
0.0
  0
CIRCLE
  5
6C
330
1F
100
AcDbEntity
  8
0
  6
Continuous
 62
     7
370
    15
100
AcDbCircle
 10
410.0688719004907
 20
249.3135196848903
 30
0.0
 40
1.625
  0
CIRCLE
  5
6D
330
1F
100
AcDbEntity
  8
0
  6
Continuous
 62
     7
370
    15
100
AcDbCircle
 10
240.0688719004907
 20
249.3135196848903
 30
0.0
 40
1.625
  0
CIRCLE
  5
6E
330
1F
100
AcDbEntity
  8
0
  6
Continuous
 62
     7
370
    15
100
AcDbCircle
 10
265.0688719004907
 20
184.3135196848903
 30
0.0
 40
1.625
  0
CIRCLE
  5
6F
330
1F
100
AcDbEntity
  8
0
  6
Continuous
 62
     7
370
    15
100
AcDbCircle
 10
385.0688719004907
 20
404.3135196848903
 30
0.0
 40
1.625
  0
ARC
  5
70
330
1F
100
AcDbEntity
  8
0
  6
Continuous
 62
     7
370
    15
100
AcDbCircle
 10
415.0688719004906
 20
179.3135196848903
 30
0.0
 40
10.00000000000001
100
AcDbArc
 50
270.0
 51
0.0
  0
LINE
  5
71
330
1F
100
AcDbEntity
  8
0
  6
Continuous
 62
     7
370
    15
100
AcDbLine
 10
235.0688719004907
 20
169.3135196848903
 30
0.0
 11
415.0688719004906
 21
169.3135196848903
 31
0.0
  0
ARC
  5
72
330
1F
100
AcDbEntity
  8
0
  6
Continuous
 62
     7
370
    15
100
AcDbCircle
 10
235.0688719004907
 20
179.3135196848903
 30
0.0
 40
10.0
100
AcDbArc
 50
180.0
 51
270.0
  0
LINE
  5
73
330
1F
100
AcDbEntity
  8
0
  6
Continuous
 62
     7
370
    15
100
AcDbLine
 10
225.0688719004907
 20
409.3135196848903
 30
0.0
 11
225.0688719004907
 21
179.3135196848903
 31
0.0
  0
ARC
  5
74
330
1F
100
AcDbEntity
  8
0
  6
Continuous
 62
     7
370
    15
100
AcDbCircle
 10
235.0688719004907
 20
409.3135196848903
 30
0.0
 40
10.00000000000003
100
AcDbArc
 50
90.0
 51
180.0
  0
LINE
  5
75
330
1F
100
AcDbEntity
  8
0
  6
Continuous
 62
     7
370
    15
100
AcDbLine
 10
415.0688719004906
 20
419.3135196848904
 30
0.0
 11
235.0688719004907
 21
419.3135196848904
 31
0.0
  0
ARC
  5
76
330
1F
100
AcDbEntity
  8
0
  6
Continuous
 62
     7
370
    15
100
AcDbCircle
 10
415.0688719004906
 20
409.3135196848903
 30
0.0
 40
10.0
100
AcDbArc
 50
0.0
 51
90.0
  0
LINE
  5
77
330
1F
100
AcDbEntity
  8
0
  6
Continuous
 62
     7
370
    15
100
AcDbLine
 10
425.0688719004907
 20
179.3135196848903
 30
0.0
 11
425.0688719004907
 21
409.3135196848903
 31
0.0
  0
CIRCLE
  5
78
330
1F
100
AcDbEntity
  8
0
  6
Continuous
 62
     7
370
    15
100
AcDbCircle
 10
265.0688719004907
 20
404.3135196848903
 30
0.0
 40
1.625
  0
CIRCLE
  5
79
330
1F
100
AcDbEntity
  8
0
  6
Continuous
 62
     7
370
    15
100
AcDbCircle
 10
385.0688719004907
 20
184.3135196848903
 30
0.0
 40
1.625
  0
CIRCLE
  5
7A
330
1F
100
AcDbEntity
  8
0
  6
Continuous
 62
     7
370
    15
100
AcDbCircle
 10
240.0688719004907
 20
339.3135196848904
 30
0.0
 40
1.625
  0
CIRCLE
  5
7B
330
1F
100
AcDbEntity
  8
0
  6
Continuous
 62
     7
370
    15
100
AcDbCircle
 10
410.0688719004907
 20
339.3135196848904
 30
0.0
 40
1.625
  0
LINE
  5
7C
330
1F
100
AcDbEntity
  8
0
  6
Continuous
 62
     7
370
    15
100
AcDbLine
 10
233.7188719004907
 20
280.0635196848904
 30
0.0
 11
233.7188719004907
 21
308.5635196848904
 31
0.0
  0
ARC
  5
7D
330
1F
100
AcDbEntity
  8
0
  6
Continuous
 62
     7
370
    15
100
AcDbCircle
 10
232.0688719004907
 20
308.5635196848904
 30
0.0
 40
1.650000000000005
100
AcDbArc
 50
0.0
 51
180.0
  0
LINE
  5
7E
330
1F
100
AcDbEntity
  8
0
  6
Continuous
 62
     7
370
    15
100
AcDbLine
 10
230.4188719004907
 20
308.5635196848904
 30
0.0
 11
230.4188719004907
 21
280.0635196848904
 31
0.0
  0
ARC
  5
7F
330
1F
100
AcDbEntity
  8
0
  6
Continuous
 62
     7
370
    15
100
AcDbCircle
 10
232.0688719004907
 20
280.0635196848904
 30
0.0
 40
1.650000000000005
100
AcDbArc
 50
180.0
 51
0.0
  0
LINE
  5
80
330
1F
100
AcDbEntity
  8
0
  6
Continuous
 62
     7
370
    15
100
AcDbLine
 10
233.7188719004907
 20
185.0635196848903
 30
0.0
 11
233.7188719004907
 21
213.5635196848904
 31
0.0
  0
ARC
  5
81
330
1F
100
AcDbEntity
  8
0
  6
Continuous
 62
     7
370
    15
100
AcDbCircle
 10
232.0688719004907
 20
213.5635196848904
 30
0.0
 40
1.650000000000034
100
AcDbArc
 50
0.0
 51
180.0
  0
LINE
  5
82
330
1F
100
AcDbEntity
  8
0
  6
Continuous
 62
     7
370
    15
100
AcDbLine
 10
230.4188719004907
 20
213.5635196848904
 30
0.0
 11
230.4188719004907
 21
185.0635196848903
 31
0.0
  0
ARC
  5
83
330
1F
100
AcDbEntity
  8
0
  6
Continuous
 62
     7
370
    15
100
AcDbCircle
 10
232.0688719004907
 20
185.0635196848903
 30
0.0
 40
1.650000000000034
100
AcDbArc
 50
180.0
 51
0.0
  0
LINE
  5
84
330
1F
100
AcDbEntity
  8
0
  6
Continuous
 62
     7
370
    15
100
AcDbLine
 10
240.8188719004907
 20
174.6635196848903
 30
0.0
 11
269.3188719004907
 21
174.6635196848903
 31
0.0
  0
ARC
  5
85
330
1F
100
AcDbEntity
  8
0
  6
Continuous
 62
     7
370
    15
100
AcDbCircle
 10
269.3188719004907
 20
176.3135196848903
 30
0.0
 40
1.650000000000005
100
AcDbArc
 50
270.0
 51
90.0
  0
LINE
  5
86
330
1F
100
AcDbEntity
  8
0
  6
Continuous
 62
     7
370
    15
100
AcDbLine
 10
269.3188719004907
 20
177.9635196848903
 30
0.0
 11
240.8188719004907
 21
177.9635196848903
 31
0.0
  0
ARC
  5
87
330
1F
100
AcDbEntity
  8
0
  6
Continuous
 62
     7
370
    15
100
AcDbCircle
 10
240.8188719004907
 20
176.3135196848903
 30
0.0
 40
1.650000000000005
100
AcDbArc
 50
90.0
 51
270.0
  0
LINE
  5
88
330
1F
100
AcDbEntity
  8
0
  6
Continuous
 62
     7
370
    15
100
AcDbLine
 10
310.8188719004907
 20
174.6635196848903
 30
0.0
 11
339.3188719004907
 21
174.6635196848903
 31
0.0
  0
ARC
  5
89
330
1F
100
AcDbEntity
  8
0
  6
Continuous
 62
     7
370
    15
100
AcDbCircle
 10
339.3188719004907
 20
176.3135196848903
 30
0.0
 40
1.650000000000005
100
AcDbArc
 50
270.0
 51
90.0
  0
LINE
  5
8A
330
1F
100
AcDbEntity
  8
0
  6
Continuous
 62
     7
370
    15
100
AcDbLine
 10
339.3188719004907
 20
177.9635196848903
 30
0.0
 11
310.8188719004907
 21
177.9635196848903
 31
0.0
  0
ARC
  5
8B
330
1F
100
AcDbEntity
  8
0
  6
Continuous
 62
     7
370
    15
100
AcDbCircle
 10
310.8188719004907
 20
176.3135196848903
 30
0.0
 40
1.650000000000005
100
AcDbArc
 50
90.0
 51
270.0
  0
LINE
  5
8C
330
1F
100
AcDbEntity
  8
0
  6
Continuous
 62
     7
370
    15
100
AcDbLine
 10
380.8188719004907
 20
174.6635196848903
 30
0.0
 11
409.3188719004906
 21
174.6635196848903
 31
0.0
  0
ARC
  5
8D
330
1F
100
AcDbEntity
  8
0
  6
Continuous
 62
     7
370
    15
100
AcDbCircle
 10
409.3188719004906
 20
176.3135196848903
 30
0.0
 40
1.650000000000005
100
AcDbArc
 50
270.0
 51
90.0
  0
LINE
  5
8E
330
1F
100
AcDbEntity
  8
0
  6
Continuous
 62
     7
370
    15
100
AcDbLine
 10
409.3188719004906
 20
177.9635196848903
 30
0.0
 11
380.8188719004907
 21
177.9635196848903
 31
0.0
  0
ARC
  5
8F
330
1F
100
AcDbEntity
  8
0
  6
Continuous
 62
     7
370
    15
100
AcDbCircle
 10
380.8188719004907
 20
176.3135196848903
 30
0.0
 40
1.650000000000005
100
AcDbArc
 50
90.0
 51
270.0
  0
LINE
  5
90
330
1F
100
AcDbEntity
  8
0
  6
Continuous
 62
     7
370
    15
100
AcDbLine
 10
419.7188719004907
 20
185.0635196848903
 30
0.0
 11
419.7188719004907
 21
213.5635196848904
 31
0.0
  0
ARC
  5
91
330
1F
100
AcDbEntity
  8
0
  6
Continuous
 62
     7
370
    15
100
AcDbCircle
 10
418.0688719004907
 20
213.5635196848904
 30
0.0
 40
1.650000000000034
100
AcDbArc
 50
0.0
 51
180.0
  0
LINE
  5
92
330
1F
100
AcDbEntity
  8
0
  6
Continuous
 62
     7
370
    15
100
AcDbLine
 10
416.4188719004907
 20
213.5635196848904
 30
0.0
 11
416.4188719004907
 21
185.0635196848903
 31
0.0
  0
ARC
  5
93
330
1F
100
AcDbEntity
  8
0
  6
Continuous
 62
     7
370
    15
100
AcDbCircle
 10
418.0688719004907
 20
185.0635196848903
 30
0.0
 40
1.650000000000034
100
AcDbArc
 50
180.0
 51
0.0
  0
LINE
  5
94
330
1F
100
AcDbEntity
  8
0
  6
Continuous
 62
     7
370
    15
100
AcDbLine
 10
416.4188719004907
 20
308.5635196848904
 30
0.0
 11
416.4188719004907
 21
280.0635196848904
 31
0.0
  0
ARC
  5
95
330
1F
100
AcDbEntity
  8
0
  6
Continuous
 62
     7
370
    15
100
AcDbCircle
 10
418.0688719004907
 20
280.0635196848904
 30
0.0
 40
1.650000000000034
100
AcDbArc
 50
180.0
 51
0.0
  0
LINE
  5
96
330
1F
100
AcDbEntity
  8
0
  6
Continuous
 62
     7
370
    15
100
AcDbLine
 10
419.7188719004907
 20
280.0635196848904
 30
0.0
 11
419.7188719004907
 21
308.5635196848904
 31
0.0
  0
ARC
  5
97
330
1F
100
AcDbEntity
  8
0
  6
Continuous
 62
     7
370
    15
100
AcDbCircle
 10
418.0688719004907
 20
308.5635196848904
 30
0.0
 40
1.650000000000034
100
AcDbArc
 50
0.0
 51
180.0
  0
LINE
  5
98
330
1F
100
AcDbEntity
  8
0
  6
Continuous
 62
     7
370
    15
100
AcDbLine
 10
416.4188719004907
 20
403.5635196848903
 30
0.0
 11
416.4188719004907
 21
375.0635196848904
 31
0.0
  0
ARC
  5
99
330
1F
100
AcDbEntity
  8
0
  6
Continuous
 62
     7
370
    15
100
AcDbCircle
 10
418.0688719004907
 20
375.0635196848904
 30
0.0
 40
1.650000000000034
100
AcDbArc
 50
180.0
 51
0.0
  0
LINE
  5
9A
330
1F
100
AcDbEntity
  8
0
  6
Continuous
 62
     7
370
    15
100
AcDbLine
 10
419.7188719004907
 20
375.0635196848904
 30
0.0
 11
419.7188719004907
 21
403.5635196848903
 31
0.0
  0
ARC
  5
9B
330
1F
100
AcDbEntity
  8
0
  6
Continuous
 62
     7
370
    15
100
AcDbCircle
 10
418.0688719004907
 20
403.5635196848903
 30
0.0
 40
1.650000000000034
100
AcDbArc
 50
0.0
 51
180.0
  0
LINE
  5
9C
330
1F
100
AcDbEntity
  8
0
  6
Continuous
 62
     7
370
    15
100
AcDbLine
 10
409.3188719004906
 20
413.9635196848903
 30
0.0
 11
380.8188719004907
 21
413.9635196848903
 31
0.0
  0
ARC
  5
9D
330
1F
100
AcDbEntity
  8
0
  6
Continuous
 62
     7
370
    15
100
AcDbCircle
 10
380.8188719004907
 20
412.3135196848903
 30
0.0
 40
1.650000000000034
100
AcDbArc
 50
90.0
 51
270.0
  0
LINE
  5
9E
330
1F
100
AcDbEntity
  8
0
  6
Continuous
 62
     7
370
    15
100
AcDbLine
 10
380.8188719004907
 20
410.6635196848903
 30
0.0
 11
409.3188719004906
 21
410.6635196848903
 31
0.0
  0
ARC
  5
9F
330
1F
100
AcDbEntity
  8
0
  6
Continuous
 62
     7
370
    15
100
AcDbCircle
 10
409.3188719004906
 20
412.3135196848903
 30
0.0
 40
1.650000000000034
100
AcDbArc
 50
270.0
 51
90.0
  0
LINE
  5
A0
330
1F
100
AcDbEntity
  8
0
  6
Continuous
 62
     7
370
    15
100
AcDbLine
 10
310.8188719004907
 20
410.6635196848903
 30
0.0
 11
339.3188719004907
 21
410.6635196848903
 31
0.0
  0
ARC
  5
A1
330
1F
100
AcDbEntity
  8
0
  6
Continuous
 62
     7
370
    15
100
AcDbCircle
 10
339.3188719004907
 20
412.3135196848903
 30
0.0
 40
1.650000000000034
100
AcDbArc
 50
270.0
 51
90.0
  0
LINE
  5
A2
330
1F
100
AcDbEntity
  8
0
  6
Continuous
 62
     7
370
    15
100
AcDbLine
 10
339.3188719004907
 20
413.9635196848903
 30
0.0
 11
310.8188719004907
 21
413.9635196848903
 31
0.0
  0
ARC
  5
A3
330
1F
100
AcDbEntity
  8
0
  6
Continuous
 62
     7
370
    15
100
AcDbCircle
 10
310.8188719004907
 20
412.3135196848903
 30
0.0
 40
1.650000000000034
100
AcDbArc
 50
90.0
 51
270.0
  0
LINE
  5
A4
330
1F
100
AcDbEntity
  8
0
  6
Continuous
 62
     7
370
    15
100
AcDbLine
 10
240.8188719004907
 20
410.6635196848903
 30
0.0
 11
269.3188719004907
 21
410.6635196848903
 31
0.0
  0
ARC
  5
A5
330
1F
100
AcDbEntity
  8
0
  6
Continuous
 62
     7
370
    15
100
AcDbCircle
 10
269.3188719004907
 20
412.3135196848903
 30
0.0
 40
1.650000000000034
100
AcDbArc
 50
270.0
 51
90.0
  0
LINE
  5
A6
330
1F
100
AcDbEntity
  8
0
  6
Continuous
 62
     7
370
    15
100
AcDbLine
 10
269.3188719004907
 20
413.9635196848903
 30
0.0
 11
240.8188719004907
 21
413.9635196848903
 31
0.0
  0
ARC
  5
A7
330
1F
100
AcDbEntity
  8
0
  6
Continuous
 62
     7
370
    15
100
AcDbCircle
 10
240.8188719004907
 20
412.3135196848903
 30
0.0
 40
1.650000000000034
100
AcDbArc
 50
90.0
 51
270.0
  0
LINE
  5
A8
330
1F
100
AcDbEntity
  8
0
  6
Continuous
 62
     7
370
    15
100
AcDbLine
 10
230.4188719004907
 20
403.5635196848903
 30
0.0
 11
230.4188719004907
 21
375.0635196848904
 31
0.0
  0
ARC
  5
A9
330
1F
100
AcDbEntity
  8
0
  6
Continuous
 62
     7
370
    15
100
AcDbCircle
 10
232.0688719004907
 20
375.0635196848904
 30
0.0
 40
1.650000000000063
100
AcDbArc
 50
180.0
 51
0.0
  0
LINE
  5
AA
330
1F
100
AcDbEntity
  8
0
  6
Continuous
 62
     7
370
    15
100
AcDbLine
 10
233.7188719004907
 20
375.0635196848904
 30
0.0
 11
233.7188719004907
 21
403.5635196848903
 31
0.0
  0
ARC
  5
AB
330
1F
100
AcDbEntity
  8
0
  6
Continuous
 62
     7
370
    15
100
AcDbCircle
 10
232.0688719004907
 20
403.5635196848903
 30
0.0
 40
1.650000000000034
100
AcDbArc
 50
0.0
 51
180.0
  0
CIRCLE
  5
AC
330
1F
100
AcDbEntity
  8
0
  6
Continuous
 62
     7
370
    15
100
AcDbCircle
 10
286.0688719004907
 20
275.9635196848904
 30
0.0
 40
1.625
  0
CIRCLE
  5
AD
330
1F
100
AcDbEntity
  8
0
  6
Continuous
 62
     7
370
    15
100
AcDbCircle
 10
286.0688719004907
 20
197.9635196848903
 30
0.0
 40
1.625000000000014
  0
CIRCLE
  5
AE
330
1F
100
AcDbEntity
  8
0
  6
Continuous
 62
     7
370
    15
100
AcDbCircle
 10
364.0688719004907
 20
197.9635196848903
 30
0.0
 40
1.625000000000014
  0
CIRCLE
  5
AF
330
1F
100
AcDbEntity
  8
0
  6
Continuous
 62
     7
370
    15
100
AcDbCircle
 10
364.0688719004907
 20
275.9635196848904
 30
0.0
 40
1.625
  0
CIRCLE
  5
B0
330
1F
100
AcDbEntity
  8
0
  6
Continuous
 62
     7
370
    15
100
AcDbCircle
 10
297.5688719004907
 20
259.4635196848904
 30
0.0
 40
1.625
  0
CIRCLE
  5
B1
330
1F
100
AcDbEntity
  8
0
  6
Continuous
 62
     7
370
    15
100
AcDbCircle
 10
352.5688719004907
 20
259.4635196848904
 30
0.0
 40
1.625
  0
CIRCLE
  5
B2
330
1F
100
AcDbEntity
  8
0
  6
Continuous
 62
     7
370
    15
100
AcDbCircle
 10
352.5688719004907
 20
214.4635196848903
 30
0.0
 40
1.625
  0
CIRCLE
  5
B3
330
1F
100
AcDbEntity
  8
0
  6
Continuous
 62
     7
370
    15
100
AcDbCircle
 10
297.5688719004907
 20
214.4635196848903
 30
0.0
 40
1.625
  0
LINE
  5
B4
330
1F
100
AcDbEntity
  8
0
  6
Continuous
 62
     7
370
    15
100
AcDbLine
 10
335.0688719004907
 20
339.9135196848904
 30
0.0
 11
315.0688719004907
 21
339.9135196848904
 31
0.0
  0
LINE
  5
B5
330
1F
100
AcDbEntity
  8
0
  6
Continuous
 62
     7
370
    15
100
AcDbLine
 10
315.0688719004907
 20
339.9135196848904
 30
0.0
 11
315.0688719004907
 21
299.3135196848904
 31
0.0
  0
LINE
  5
B6
330
1F
100
AcDbEntity
  8
0
  6
Continuous
 62
     7
370
    15
100
AcDbLine
 10
315.0688719004907
 20
299.3135196848904
 30
0.0
 11
335.0688719004907
 21
299.3135196848904
 31
0.0
  0
LINE
  5
B7
330
1F
100
AcDbEntity
  8
0
  6
Continuous
 62
     7
370
    15
100
AcDbLine
 10
335.0688719004907
 20
299.3135196848904
 30
0.0
 11
335.0688719004907
 21
339.9135196848904
 31
0.0
  0
CIRCLE
  5
B8
330
1F
100
AcDbEntity
  8
0
  6
Continuous
 62
     7
370
    15
100
AcDbCircle
 10
329.9828719004907
 20
295.2525196848903
 30
0.0
 40
2.250000000000028
  0
CIRCLE
  5
B9
330
1F
100
AcDbEntity
  8
0
  6
Continuous
 62
     7
370
    15
100
AcDbCircle
 10
320.1548719004907
 20
295.2525196848903
 30
0.0
 40
2.25
  0
CIRCLE
  5
BA
330
1F
100
AcDbEntity
  8
0
  6
Continuous
 62
     7
370
    15
100
AcDbCircle
 10
320.1548719004907
 20
343.8875196848904
 30
0.0
 40
2.25
  0
CIRCLE
  5
BB
330
1F
100
AcDbEntity
  8
0
  6
Continuous
 62
     7
370
    15
100
AcDbCircle
 10
329.9828719004907
 20
343.8875196848904
 30
0.0
 40
2.25
  0
CIRCLE
  5
BC
330
1F
100
AcDbEntity
  8
0
  6
Continuous
 62
     7
370
    15
100
AcDbCircle
 10
325.0688719004907
 20
402.3135196848903
 30
0.0
 40
1.625000000000056
  0
CIRCLE
  5
BD
330
1F
100
AcDbEntity
  8
0
  6
Continuous
 62
     7
370
    15
100
AcDbCircle
 10
381.6374143953907
 20
378.8820621797904
 30
0.0
 40
1.625000000000056
  0
CIRCLE
  5
BE
330
1F
100
AcDbEntity
  8
0
  6
Continuous
 62
     7
370
    15
100
AcDbCircle
 10
405.0688719004907
 20
322.3135196848904
 30
0.0
 40
1.625000000000027
  0
CIRCLE
  5
BF
330
1F
100
AcDbEntity
  8
0
  6
Continuous
 62
     7
370
    15
100
AcDbCircle
 10
245.0688719004907
 20
322.3135196848904
 30
0.0
 40
1.625
  0
CIRCLE
  5
C0
330
1F
100
AcDbEntity
  8
0
  6
Continuous
 62
     7
370
    15
100
AcDbCircle
 10
268.5003294054908
 20
378.8820621797904
 30
0.0
 40
1.625000000000056
  0
CIRCLE
  5
C1
330
1F
100
AcDbEntity
  8
0
  6
Continuous
 62
     7
370
    15
100
AcDbCircle
 10
250.3149879264907
 20
397.0674036588904
 30
0.0
 40
1.625000000000056
  0
CIRCLE
  5
C2
330
1F
100
AcDbEntity
  8
0
  6
Continuous
 62
     7
370
    15
100
AcDbCircle
 10
399.8227558743908
 20
397.0674036588904
 30
0.0
 40
1.624999999999943
  0
LINE
  5
C3
330
1F
100
AcDbEntity
  8
0
  6
Continuous
 62
     7
370
    15
100
AcDbLine
 10
265.0688719004907
 20
392.6635196848904
 30
0.0
 11
385.0688719004907
 21
392.6635196848904
 31
0.0
  0
ARC
  5
C4
330
1F
100
AcDbEntity
  8
0
  6
Continuous
 62
     7
370
    15
100
AcDbCircle
 10
385.0688719004907
 20
394.3135196848904
 30
0.0
 40
1.650000000000034
100
AcDbArc
 50
270.0
 51
90.0
  0
LINE
  5
C5
330
1F
100
AcDbEntity
  8
0
  6
Continuous
 62
     7
370
    15
100
AcDbLine
 10
385.0688719004907
 20
395.9635196848903
 30
0.0
 11
265.0688719004907
 21
395.9635196848903
 31
0.0
  0
ARC
  5
C6
330
1F
100
AcDbEntity
  8
0
  6
Continuous
 62
     7
370
    15
100
AcDbCircle
 10
265.0688719004907
 20
394.3135196848904
 30
0.0
 40
1.650000000000034
100
AcDbArc
 50
90.0
 51
270.0
  0
LINE
  5
C7
330
1F
100
AcDbEntity
  8
0
  6
Continuous
 62
     7
370
    15
100
AcDbLine
 10
265.0688719004907
 20
371.3635196848904
 30
0.0
 11
385.0688719004907
 21
371.3635196848904
 31
0.0
  0
ARC
  5
C8
330
1F
100
AcDbEntity
  8
0
  6
Continuous
 62
     7
370
    15
100
AcDbCircle
 10
385.0688719004907
 20
373.0135196848904
 30
0.0
 40
1.650000000000034
100
AcDbArc
 50
270.0
 51
90.0
  0
LINE
  5
C9
330
1F
100
AcDbEntity
  8
0
  6
Continuous
 62
     7
370
    15
100
AcDbLine
 10
385.0688719004907
 20
374.6635196848903
 30
0.0
 11
265.0688719004907
 21
374.6635196848903
 31
0.0
  0
ARC
  5
CA
330
1F
100
AcDbEntity
  8
0
  6
Continuous
 62
     7
370
    15
100
AcDbCircle
 10
265.0688719004907
 20
373.0135196848904
 30
0.0
 40
1.650000000000034
100
AcDbArc
 50
90.0
 51
270.0
  0
LINE
  5
CB
330
1F
100
AcDbEntity
  8
0
  6
Continuous
 62
     7
370
    15
100
AcDbLine
 10
265.0688719004907
 20
350.0635196848904
 30
0.0
 11
385.0688719004907
 21
350.0635196848904
 31
0.0
  0
ARC
  5
CC
330
1F
100
AcDbEntity
  8
0
  6
Continuous
 62
     7
370
    15
100
AcDbCircle
 10
385.0688719004907
 20
351.7135196848903
 30
0.0
 40
1.650000000000034
100
AcDbArc
 50
270.0
 51
90.0
  0
LINE
  5
CD
330
1F
100
AcDbEntity
  8
0
  6
Continuous
 62
     7
370
    15
100
AcDbLine
 10
385.0688719004907
 20
353.3635196848904
 30
0.0
 11
265.0688719004907
 21
353.3635196848904
 31
0.0
  0
ARC
  5
CE
330
1F
100
AcDbEntity
  8
0
  6
Continuous
 62
     7
370
    15
100
AcDbCircle
 10
265.0688719004907
 20
351.7135196848903
 30
0.0
 40
1.650000000000034
100
AcDbArc
 50
90.0
 51
270.0
  0
LINE
  5
CF
330
1F
100
AcDbEntity
  8
0
  6
Continuous
 62
     7
370
    15
100
AcDbLine
 10
391.1451626384907
 20
344.9135196848903
 30
0.0
 11
391.1451626384907
 21
294.3135196848904
 31
0.0
  0
ARC
  5
D0
330
1F
100
AcDbEntity
  8
0
  6
Continuous
 62
     7
370
    15
100
AcDbCircle
 10
392.7951626384907
 20
294.3135196848904
 30
0.0
 40
1.650000000000034
100
AcDbArc
 50
180.0
 51
0.0
  0
LINE
  5
D1
330
1F
100
AcDbEntity
  8
0
  6
Continuous
 62
     7
370
    15
100
AcDbLine
 10
394.4451626384907
 20
294.3135196848904
 30
0.0
 11
394.4451626384907
 21
344.9135196848903
 31
0.0
  0
ARC
  5
D2
330
1F
100
AcDbEntity
  8
0
  6
Continuous
 62
     7
370
    15
100
AcDbCircle
 10
392.7951626384907
 20
344.9135196848903
 30
0.0
 40
1.650000000000034
100
AcDbArc
 50
0.0
 51
180.0
  0
LINE
  5
D3
330
1F
100
AcDbEntity
  8
0
  6
Continuous
 62
     7
370
    15
100
AcDbLine
 10
255.6925811623907
 20
344.9135196848903
 30
0.0
 11
255.6925811623907
 21
294.3135196848904
 31
0.0
  0
ARC
  5
D4
330
1F
100
AcDbEntity
  8
0
  6
Continuous
 62
     7
370
    15
100
AcDbCircle
 10
257.3425811623907
 20
294.3135196848904
 30
0.0
 40
1.650000000000005
100
AcDbArc
 50
180.0
 51
0.0
  0
LINE
  5
D5
330
1F
100
AcDbEntity
  8
0
  6
Continuous
 62
     7
370
    15
100
AcDbLine
 10
258.9925811623907
 20
294.3135196848904
 30
0.0
 11
258.9925811623907
 21
344.9135196848903
 31
0.0
  0
ARC
  5
D6
330
1F
100
AcDbEntity
  8
0
  6
Continuous
 62
     7
370
    15
100
AcDbCircle
 10
257.3425811623907
 20
344.9135196848903
 30
0.0
 40
1.650000000000034
100
AcDbArc
 50
0.0
 51
180.0
  0
LINE
  5
D7
330
1F
100
AcDbEntity
  8
0
  6
Continuous
 62
     7
370
    15
100
AcDbLine
 10
273.6925811623907
 20
344.9135196848903
 30
0.0
 11
273.6925811623907
 21
294.3135196848904
 31
0.0
  0
ARC
  5
D8
330
1F
100
AcDbEntity
  8
0
  6
Continuous
 62
     7
370
    15
100
AcDbCircle
 10
275.3425811623907
 20
294.3135196848904
 30
0.0
 40
1.650000000000034
100
AcDbArc
 50
180.0
 51
0.0
  0
LINE
  5
D9
330
1F
100
AcDbEntity
  8
0
  6
Continuous
 62
     7
370
    15
100
AcDbLine
 10
276.9925811623907
 20
294.3135196848904
 30
0.0
 11
276.9925811623907
 21
344.9135196848903
 31
0.0
  0
ARC
  5
DA
330
1F
100
AcDbEntity
  8
0
  6
Continuous
 62
     7
370
    15
100
AcDbCircle
 10
275.3425811623907
 20
344.9135196848903
 30
0.0
 40
1.649999999999976
100
AcDbArc
 50
0.0
 51
180.0
  0
LINE
  5
DB
330
1F
100
AcDbEntity
  8
0
  6
Continuous
 62
     7
370
    15
100
AcDbLine
 10
291.6925811623907
 20
344.9135196848903
 30
0.0
 11
291.6925811623907
 21
294.3135196848904
 31
0.0
  0
ARC
  5
DC
330
1F
100
AcDbEntity
  8
0
  6
Continuous
 62
     7
370
    15
100
AcDbCircle
 10
293.3425811623907
 20
294.3135196848904
 30
0.0
 40
1.649999999999976
100
AcDbArc
 50
180.0
 51
0.0
  0
LINE
  5
DD
330
1F
100
AcDbEntity
  8
0
  6
Continuous
 62
     7
370
    15
100
AcDbLine
 10
294.9925811623907
 20
294.3135196848904
 30
0.0
 11
294.9925811623907
 21
344.9135196848903
 31
0.0
  0
ARC
  5
DE
330
1F
100
AcDbEntity
  8
0
  6
Continuous
 62
     7
370
    15
100
AcDbCircle
 10
293.3425811623907
 20
344.9135196848903
 30
0.0
 40
1.649999999999976
100
AcDbArc
 50
0.0
 51
180.0
  0
LINE
  5
DF
330
1F
100
AcDbEntity
  8
0
  6
Continuous
 62
     7
370
    15
100
AcDbLine
 10
373.1451626384906
 20
344.9135196848903
 30
0.0
 11
373.1451626384906
 21
294.3135196848904
 31
0.0
  0
ARC
  5
E0
330
1F
100
AcDbEntity
  8
0
  6
Continuous
 62
     7
370
    15
100
AcDbCircle
 10
374.7951626384907
 20
294.3135196848904
 30
0.0
 40
1.649999999999976
100
AcDbArc
 50
180.0
 51
0.0
  0
LINE
  5
E1
330
1F
100
AcDbEntity
  8
0
  6
Continuous
 62
     7
370
    15
100
AcDbLine
 10
376.4451626384907
 20
294.3135196848904
 30
0.0
 11
376.4451626384907
 21
344.9135196848903
 31
0.0
  0
ARC
  5
E2
330
1F
100
AcDbEntity
  8
0
  6
Continuous
 62
     7
370
    15
100
AcDbCircle
 10
374.7951626384907
 20
344.9135196848903
 30
0.0
 40
1.649999999999976
100
AcDbArc
 50
0.0
 51
180.0
  0
LINE
  5
E3
330
1F
100
AcDbEntity
  8
0
  6
Continuous
 62
     7
370
    15
100
AcDbLine
 10
355.1451626384907
 20
344.9135196848903
 30
0.0
 11
355.1451626384907
 21
294.3135196848904
 31
0.0
  0
ARC
  5
E4
330
1F
100
AcDbEntity
  8
0
  6
Continuous
 62
     7
370
    15
100
AcDbCircle
 10
356.7951626384907
 20
294.3135196848904
 30
0.0
 40
1.650000000000034
100
AcDbArc
 50
180.0
 51
0.0
  0
LINE
  5
E5
330
1F
100
AcDbEntity
  8
0
  6
Continuous
 62
     7
370
    15
100
AcDbLine
 10
358.4451626384907
 20
294.3135196848904
 30
0.0
 11
358.4451626384907
 21
344.9135196848903
 31
0.0
  0
ARC
  5
E6
330
1F
100
AcDbEntity
  8
0
  6
Continuous
 62
     7
370
    15
100
AcDbCircle
 10
356.7951626384907
 20
344.9135196848903
 30
0.0
 40
1.650000000000034
100
AcDbArc
 50
0.0
 51
180.0
  0
LINE
  5
E7
330
1F
100
AcDbEntity
  8
0
  6
Continuous
 62
     7
370
    15
100
AcDbLine
 10
243.4188719004907
 20
269.4635196848903
 30
0.0
 11
243.4188719004907
 21
204.4635196848903
 31
0.0
  0
ARC
  5
E8
330
1F
100
AcDbEntity
  8
0
  6
Continuous
 62
     7
370
    15
100
AcDbCircle
 10
245.0688719004907
 20
204.4635196848903
 30
0.0
 40
1.650000000000005
100
AcDbArc
 50
180.0
 51
0.0
  0
LINE
  5
E9
330
1F
100
AcDbEntity
  8
0
  6
Continuous
 62
     7
370
    15
100
AcDbLine
 10
246.7188719004907
 20
204.4635196848903
 30
0.0
 11
246.7188719004907
 21
269.4635196848903
 31
0.0
  0
ARC
  5
EA
330
1F
100
AcDbEntity
  8
0
  6
Continuous
 62
     7
370
    15
100
AcDbCircle
 10
245.0688719004907
 20
269.4635196848903
 30
0.0
 40
1.650000000000005
100
AcDbArc
 50
0.0
 51
180.0
  0
LINE
  5
EB
330
1F
100
AcDbEntity
  8
0
  6
Continuous
 62
     7
370
    15
100
AcDbLine
 10
263.4188719004907
 20
269.4635196848903
 30
0.0
 11
263.4188719004907
 21
204.4635196848903
 31
0.0
  0
ARC
  5
EC
330
1F
100
AcDbEntity
  8
0
  6
Continuous
 62
     7
370
    15
100
AcDbCircle
 10
265.0688719004907
 20
204.4635196848903
 30
0.0
 40
1.650000000000034
100
AcDbArc
 50
180.0
 51
0.0
  0
LINE
  5
ED
330
1F
100
AcDbEntity
  8
0
  6
Continuous
 62
     7
370
    15
100
AcDbLine
 10
266.7188719004907
 20
204.4635196848903
 30
0.0
 11
266.7188719004907
 21
269.4635196848903
 31
0.0
  0
ARC
  5
EE
330
1F
100
AcDbEntity
  8
0
  6
Continuous
 62
     7
370
    15
100
AcDbCircle
 10
265.0688719004907
 20
269.4635196848903
 30
0.0
 40
1.650000000000034
100
AcDbArc
 50
0.0
 51
180.0
  0
LINE
  5
EF
330
1F
100
AcDbEntity
  8
0
  6
Continuous
 62
     7
370
    15
100
AcDbLine
 10
283.4188719004907
 20
269.4635196848903
 30
0.0
 11
283.4188719004907
 21
204.4635196848903
 31
0.0
  0
ARC
  5
F0
330
1F
100
AcDbEntity
  8
0
  6
Continuous
 62
     7
370
    15
100
AcDbCircle
 10
285.0688719004907
 20
204.4635196848903
 30
0.0
 40
1.649999999999976
100
AcDbArc
 50
180.0
 51
0.0
  0
LINE
  5
F1
330
1F
100
AcDbEntity
  8
0
  6
Continuous
 62
     7
370
    15
100
AcDbLine
 10
286.7188719004907
 20
204.4635196848903
 30
0.0
 11
286.7188719004907
 21
269.4635196848903
 31
0.0
  0
ARC
  5
F2
330
1F
100
AcDbEntity
  8
0
  6
Continuous
 62
     7
370
    15
100
AcDbCircle
 10
285.0688719004907
 20
269.4635196848903
 30
0.0
 40
1.649999999999976
100
AcDbArc
 50
0.0
 51
180.0
  0
LINE
  5
F3
330
1F
100
AcDbEntity
  8
0
  6
Continuous
 62
     7
370
    15
100
AcDbLine
 10
303.4188719004907
 20
269.4635196848903
 30
0.0
 11
303.4188719004907
 21
204.4635196848903
 31
0.0
  0
ARC
  5
F4
330
1F
100
AcDbEntity
  8
0
  6
Continuous
 62
     7
370
    15
100
AcDbCircle
 10
305.0688719004907
 20
204.4635196848903
 30
0.0
 40
1.650000000000034
100
AcDbArc
 50
180.0
 51
0.0
  0
LINE
  5
F5
330
1F
100
AcDbEntity
  8
0
  6
Continuous
 62
     7
370
    15
100
AcDbLine
 10
306.7188719004907
 20
204.4635196848903
 30
0.0
 11
306.7188719004907
 21
269.4635196848903
 31
0.0
  0
ARC
  5
F6
330
1F
100
AcDbEntity
  8
0
  6
Continuous
 62
     7
370
    15
100
AcDbCircle
 10
305.0688719004907
 20
269.4635196848903
 30
0.0
 40
1.650000000000034
100
AcDbArc
 50
0.0
 51
180.0
  0
LINE
  5
F7
330
1F
100
AcDbEntity
  8
0
  6
Continuous
 62
     7
370
    15
100
AcDbLine
 10
323.4188719004907
 20
269.4635196848903
 30
0.0
 11
323.4188719004907
 21
204.4635196848903
 31
0.0
  0
ARC
  5
F8
330
1F
100
AcDbEntity
  8
0
  6
Continuous
 62
     7
370
    15
100
AcDbCircle
 10
325.0688719004907
 20
204.4635196848903
 30
0.0
 40
1.650000000000034
100
AcDbArc
 50
180.0
 51
0.0
  0
LINE
  5
F9
330
1F
100
AcDbEntity
  8
0
  6
Continuous
 62
     7
370
    15
100
AcDbLine
 10
326.7188719004908
 20
204.4635196848903
 30
0.0
 11
326.7188719004908
 21
269.4635196848903
 31
0.0
  0
ARC
  5
FA
330
1F
100
AcDbEntity
  8
0
  6
Continuous
 62
     7
370
    15
100
AcDbCircle
 10
325.0688719004907
 20
269.4635196848903
 30
0.0
 40
1.650000000000034
100
AcDbArc
 50
0.0
 51
180.0
  0
LINE
  5
FB
330
1F
100
AcDbEntity
  8
0
  6
Continuous
 62
     7
370
    15
100
AcDbLine
 10
343.4188719004907
 20
269.4635196848903
 30
0.0
 11
343.4188719004907
 21
204.4635196848903
 31
0.0
  0
ARC
  5
FC
330
1F
100
AcDbEntity
  8
0
  6
Continuous
 62
     7
370
    15
100
AcDbCircle
 10
345.0688719004907
 20
204.4635196848903
 30
0.0
 40
1.650000000000034
100
AcDbArc
 50
180.0
 51
0.0
  0
LINE
  5
FD
330
1F
100
AcDbEntity
  8
0
  6
Continuous
 62
     7
370
    15
100
AcDbLine
 10
346.7188719004907
 20
204.4635196848903
 30
0.0
 11
346.7188719004907
 21
269.4635196848903
 31
0.0
  0
ARC
  5
FE
330
1F
100
AcDbEntity
  8
0
  6
Continuous
 62
     7
370
    15
100
AcDbCircle
 10
345.0688719004907
 20
269.4635196848903
 30
0.0
 40
1.650000000000034
100
AcDbArc
 50
0.0
 51
180.0
  0
LINE
  5
FF
330
1F
100
AcDbEntity
  8
0
  6
Continuous
 62
     7
370
    15
100
AcDbLine
 10
363.4188719004907
 20
269.4635196848903
 30
0.0
 11
363.4188719004907
 21
204.4635196848903
 31
0.0
  0
ARC
  5
100
330
1F
100
AcDbEntity
  8
0
  6
Continuous
 62
     7
370
    15
100
AcDbCircle
 10
365.0688719004907
 20
204.4635196848903
 30
0.0
 40
1.650000000000034
100
AcDbArc
 50
180.0
 51
0.0
  0
LINE
  5
101
330
1F
100
AcDbEntity
  8
0
  6
Continuous
 62
     7
370
    15
100
AcDbLine
 10
366.7188719004907
 20
204.4635196848903
 30
0.0
 11
366.7188719004907
 21
269.4635196848903
 31
0.0
  0
ARC
  5
102
330
1F
100
AcDbEntity
  8
0
  6
Continuous
 62
     7
370
    15
100
AcDbCircle
 10
365.0688719004907
 20
269.4635196848903
 30
0.0
 40
1.650000000000034
100
AcDbArc
 50
0.0
 51
180.0
  0
LINE
  5
103
330
1F
100
AcDbEntity
  8
0
  6
Continuous
 62
     7
370
    15
100
AcDbLine
 10
383.4188719004907
 20
269.4635196848903
 30
0.0
 11
383.4188719004907
 21
204.4635196848903
 31
0.0
  0
ARC
  5
104
330
1F
100
AcDbEntity
  8
0
  6
Continuous
 62
     7
370
    15
100
AcDbCircle
 10
385.0688719004907
 20
204.4635196848903
 30
0.0
 40
1.649999999999976
100
AcDbArc
 50
180.0
 51
0.0
  0
LINE
  5
105
330
1F
100
AcDbEntity
  8
0
  6
Continuous
 62
     7
370
    15
100
AcDbLine
 10
386.7188719004908
 20
204.4635196848903
 30
0.0
 11
386.7188719004908
 21
269.4635196848903
 31
0.0
  0
ARC
  5
106
330
1F
100
AcDbEntity
  8
0
  6
Continuous
 62
     7
370
    15
100
AcDbCircle
 10
385.0688719004907
 20
269.4635196848903
 30
0.0
 40
1.649999999999976
100
AcDbArc
 50
0.0
 51
180.0
  0
LINE
  5
107
330
1F
100
AcDbEntity
  8
0
  6
Continuous
 62
     7
370
    15
100
AcDbLine
 10
403.4188719004907
 20
269.4635196848903
 30
0.0
 11
403.4188719004907
 21
204.4635196848903
 31
0.0
  0
ARC
  5
108
330
1F
100
AcDbEntity
  8
0
  6
Continuous
 62
     7
370
    15
100
AcDbCircle
 10
405.0688719004907
 20
204.4635196848903
 30
0.0
 40
1.650000000000034
100
AcDbArc
 50
180.0
 51
0.0
  0
LINE
  5
109
330
1F
100
AcDbEntity
  8
0
  6
Continuous
 62
     7
370
    15
100
AcDbLine
 10
406.7188719004907
 20
204.4635196848903
 30
0.0
 11
406.7188719004907
 21
269.4635196848903
 31
0.0
  0
ARC
  5
10A
330
1F
100
AcDbEntity
  8
0
  6
Continuous
 62
     7
370
    15
100
AcDbCircle
 10
405.0688719004907
 20
269.4635196848903
 30
0.0
 40
1.649999999999976
100
AcDbArc
 50
0.0
 51
180.0
  0
LINE
  5
10B
330
1F
100
AcDbEntity
  8
0
  6
Continuous
 62
     7
370
    15
100
AcDbLine
 10
262.5688719004907
 20
280.6635196848904
 30
0.0
 11
387.5688719004907
 21
280.6635196848904
 31
0.0
  0
ARC
  5
10C
330
1F
100
AcDbEntity
  8
0
  6
Continuous
 62
     7
370
    15
100
AcDbCircle
 10
387.5688719004907
 20
282.3135196848904
 30
0.0
 40
1.650000000000005
100
AcDbArc
 50
270.0
 51
90.0
  0
LINE
  5
10D
330
1F
100
AcDbEntity
  8
0
  6
Continuous
 62
     7
370
    15
100
AcDbLine
 10
387.5688719004907
 20
283.9635196848903
 30
0.0
 11
262.5688719004907
 21
283.9635196848903
 31
0.0
  0
ARC
  5
10E
330
1F
100
AcDbEntity
  8
0
  6
Continuous
 62
     7
370
    15
100
AcDbCircle
 10
262.5688719004907
 20
282.3135196848904
 30
0.0
 40
1.650000000000005
100
AcDbArc
 50
90.0
 51
270.0
  0
CIRCLE
  5
10F
330
1F
100
AcDbEntity
  8
0
  6
Continuous
 62
     7
370
    15
100
AcDbCircle
 10
196.7218685055907
 20
249.3135196848903
 30
0.0
 40
1.625
  0
CIRCLE
  5
110
330
1F
100
AcDbEntity
  8
0
  6
Continuous
 62
     7
370
    15
100
AcDbCircle
 10
26.7218685055907
 20
249.3135196848903
 30
0.0
 40
1.625
  0
CIRCLE
  5
111
330
1F
100
AcDbEntity
  8
0
  6
Continuous
 62
     7
370
    15
100
AcDbCircle
 10
51.7218685055907
 20
184.3135196848903
 30
0.0
 40
1.625
  0
CIRCLE
  5
112
330
1F
100
AcDbEntity
  8
0
  6
Continuous
 62
     7
370
    15
100
AcDbCircle
 10
171.7218685055907
 20
404.3135196848903
 30
0.0
 40
1.625
  0
ARC
  5
113
330
1F
100
AcDbEntity
  8
0
  6
Continuous
 62
     7
370
    15
100
AcDbCircle
 10
201.7218685055907
 20
179.3135196848903
 30
0.0
 40
10.00000000000001
100
AcDbArc
 50
270.0
 51
0.0
  0
LINE
  5
114
330
1F
100
AcDbEntity
  8
0
  6
Continuous
 62
     7
370
    15
100
AcDbLine
 10
21.72186850559069
 20
169.3135196848903
 30
0.0
 11
201.7218685055907
 21
169.3135196848903
 31
0.0
  0
ARC
  5
115
330
1F
100
AcDbEntity
  8
0
  6
Continuous
 62
     7
370
    15
100
AcDbCircle
 10
21.72186850559069
 20
179.3135196848903
 30
0.0
 40
10.0
100
AcDbArc
 50
180.0
 51
270.0
  0
LINE
  5
116
330
1F
100
AcDbEntity
  8
0
  6
Continuous
 62
     7
370
    15
100
AcDbLine
 10
11.72186850559069
 20
409.3135196848903
 30
0.0
 11
11.72186850559069
 21
179.3135196848903
 31
0.0
  0
ARC
  5
117
330
1F
100
AcDbEntity
  8
0
  6
Continuous
 62
     7
370
    15
100
AcDbCircle
 10
21.72186850559069
 20
409.3135196848903
 30
0.0
 40
10.0
100
AcDbArc
 50
90.0
 51
180.0
  0
LINE
  5
118
330
1F
100
AcDbEntity
  8
0
  6
Continuous
 62
     7
370
    15
100
AcDbLine
 10
201.7218685055907
 20
419.3135196848904
 30
0.0
 11
21.72186850559069
 21
419.3135196848904
 31
0.0
  0
ARC
  5
119
330
1F
100
AcDbEntity
  8
0
  6
Continuous
 62
     7
370
    15
100
AcDbCircle
 10
201.7218685055907
 20
409.3135196848903
 30
0.0
 40
10.0
100
AcDbArc
 50
0.0
 51
90.0
  0
LINE
  5
11A
330
1F
100
AcDbEntity
  8
0
  6
Continuous
 62
     7
370
    15
100
AcDbLine
 10
211.7218685055907
 20
179.3135196848903
 30
0.0
 11
211.7218685055907
 21
409.3135196848903
 31
0.0
  0
CIRCLE
  5
11B
330
1F
100
AcDbEntity
  8
0
  6
Continuous
 62
     7
370
    15
100
AcDbCircle
 10
51.7218685055907
 20
404.3135196848903
 30
0.0
 40
1.625
  0
CIRCLE
  5
11C
330
1F
100
AcDbEntity
  8
0
  6
Continuous
 62
     7
370
    15
100
AcDbCircle
 10
171.7218685055907
 20
184.3135196848903
 30
0.0
 40
1.625
  0
CIRCLE
  5
11D
330
1F
100
AcDbEntity
  8
0
  6
Continuous
 62
     7
370
    15
100
AcDbCircle
 10
26.7218685055907
 20
339.3135196848904
 30
0.0
 40
1.625
  0
CIRCLE
  5
11E
330
1F
100
AcDbEntity
  8
0
  6
Continuous
 62
     7
370
    15
100
AcDbCircle
 10
196.7218685055907
 20
339.3135196848904
 30
0.0
 40
1.625
  0
LINE
  5
11F
330
1F
100
AcDbEntity
  8
0
  6
Continuous
 62
     7
370
    15
100
AcDbLine
 10
20.3718685055907
 20
280.0635196848904
 30
0.0
 11
20.3718685055907
 21
308.5635196848904
 31
0.0
  0
ARC
  5
120
330
1F
100
AcDbEntity
  8
0
  6
Continuous
 62
     7
370
    15
100
AcDbCircle
 10
18.72186850559069
 20
308.5635196848904
 30
0.0
 40
1.649999999999999
100
AcDbArc
 50
0.0
 51
180.0
  0
LINE
  5
121
330
1F
100
AcDbEntity
  8
0
  6
Continuous
 62
     7
370
    15
100
AcDbLine
 10
17.07186850559069
 20
308.5635196848904
 30
0.0
 11
17.07186850559069
 21
280.0635196848904
 31
0.0
  0
ARC
  5
122
330
1F
100
AcDbEntity
  8
0
  6
Continuous
 62
     7
370
    15
100
AcDbCircle
 10
18.72186850559069
 20
280.0635196848904
 30
0.0
 40
1.649999999999999
100
AcDbArc
 50
180.0
 51
0.0
  0
LINE
  5
123
330
1F
100
AcDbEntity
  8
0
  6
Continuous
 62
     7
370
    15
100
AcDbLine
 10
17.07186850559069
 20
403.5635196848903
 30
0.0
 11
17.07186850559069
 21
375.0635196848904
 31
0.0
  0
ARC
  5
124
330
1F
100
AcDbEntity
  8
0
  6
Continuous
 62
     7
370
    15
100
AcDbCircle
 10
18.72186850559069
 20
375.0635196848904
 30
0.0
 40
1.649999999999974
100
AcDbArc
 50
180.0
 51
0.0
  0
LINE
  5
125
330
1F
100
AcDbEntity
  8
0
  6
Continuous
 62
     7
370
    15
100
AcDbLine
 10
20.3718685055907
 20
375.0635196848904
 30
0.0
 11
20.3718685055907
 21
403.5635196848903
 31
0.0
  0
ARC
  5
126
330
1F
100
AcDbEntity
  8
0
  6
Continuous
 62
     7
370
    15
100
AcDbCircle
 10
18.72186850559069
 20
403.5635196848903
 30
0.0
 40
1.649999999999969
100
AcDbArc
 50
0.0
 51
180.0
  0
LINE
  5
127
330
1F
100
AcDbEntity
  8
0
  6
Continuous
 62
     7
370
    15
100
AcDbLine
 10
20.3718685055907
 20
185.0635196848903
 30
0.0
 11
20.3718685055907
 21
213.5635196848904
 31
0.0
  0
ARC
  5
128
330
1F
100
AcDbEntity
  8
0
  6
Continuous
 62
     7
370
    15
100
AcDbCircle
 10
18.72186850559069
 20
213.5635196848904
 30
0.0
 40
1.649999999999999
100
AcDbArc
 50
0.0
 51
180.0
  0
LINE
  5
129
330
1F
100
AcDbEntity
  8
0
  6
Continuous
 62
     7
370
    15
100
AcDbLine
 10
17.07186850559069
 20
213.5635196848904
 30
0.0
 11
17.07186850559069
 21
185.0635196848903
 31
0.0
  0
ARC
  5
12A
330
1F
100
AcDbEntity
  8
0
  6
Continuous
 62
     7
370
    15
100
AcDbCircle
 10
18.72186850559069
 20
185.0635196848903
 30
0.0
 40
1.649999999999999
100
AcDbArc
 50
180.0
 51
0.0
  0
LINE
  5
12B
330
1F
100
AcDbEntity
  8
0
  6
Continuous
 62
     7
370
    15
100
AcDbLine
 10
206.3718685055907
 20
185.0635196848903
 30
0.0
 11
206.3718685055907
 21
213.5635196848904
 31
0.0
  0
ARC
  5
12C
330
1F
100
AcDbEntity
  8
0
  6
Continuous
 62
     7
370
    15
100
AcDbCircle
 10
204.7218685055907
 20
213.5635196848904
 30
0.0
 40
1.650000000000005
100
AcDbArc
 50
0.0
 51
180.0
  0
LINE
  5
12D
330
1F
100
AcDbEntity
  8
0
  6
Continuous
 62
     7
370
    15
100
AcDbLine
 10
203.0718685055906
 20
213.5635196848904
 30
0.0
 11
203.0718685055906
 21
185.0635196848903
 31
0.0
  0
ARC
  5
12E
330
1F
100
AcDbEntity
  8
0
  6
Continuous
 62
     7
370
    15
100
AcDbCircle
 10
204.7218685055907
 20
185.0635196848903
 30
0.0
 40
1.650000000000005
100
AcDbArc
 50
180.0
 51
0.0
  0
LINE
  5
12F
330
1F
100
AcDbEntity
  8
0
  6
Continuous
 62
     7
370
    15
100
AcDbLine
 10
206.3718685055907
 20
280.0635196848904
 30
0.0
 11
206.3718685055907
 21
308.5635196848904
 31
0.0
  0
ARC
  5
130
330
1F
100
AcDbEntity
  8
0
  6
Continuous
 62
     7
370
    15
100
AcDbCircle
 10
204.7218685055907
 20
308.5635196848904
 30
0.0
 40
1.650000000000005
100
AcDbArc
 50
0.0
 51
180.0
  0
LINE
  5
131
330
1F
100
AcDbEntity
  8
0
  6
Continuous
 62
     7
370
    15
100
AcDbLine
 10
203.0718685055906
 20
308.5635196848904
 30
0.0
 11
203.0718685055906
 21
280.0635196848904
 31
0.0
  0
ARC
  5
132
330
1F
100
AcDbEntity
  8
0
  6
Continuous
 62
     7
370
    15
100
AcDbCircle
 10
204.7218685055907
 20
280.0635196848904
 30
0.0
 40
1.650000000000005
100
AcDbArc
 50
180.0
 51
0.0
  0
LINE
  5
133
330
1F
100
AcDbEntity
  8
0
  6
Continuous
 62
     7
370
    15
100
AcDbLine
 10
203.0718685055906
 20
403.5635196848903
 30
0.0
 11
203.0718685055906
 21
375.0635196848904
 31
0.0
  0
ARC
  5
134
330
1F
100
AcDbEntity
  8
0
  6
Continuous
 62
     7
370
    15
100
AcDbCircle
 10
204.7218685055907
 20
375.0635196848904
 30
0.0
 40
1.650000000000034
100
AcDbArc
 50
180.0
 51
0.0
  0
LINE
  5
135
330
1F
100
AcDbEntity
  8
0
  6
Continuous
 62
     7
370
    15
100
AcDbLine
 10
206.3718685055907
 20
375.0635196848904
 30
0.0
 11
206.3718685055907
 21
403.5635196848903
 31
0.0
  0
ARC
  5
136
330
1F
100
AcDbEntity
  8
0
  6
Continuous
 62
     7
370
    15
100
AcDbCircle
 10
204.7218685055907
 20
403.5635196848903
 30
0.0
 40
1.650000000000005
100
AcDbArc
 50
0.0
 51
180.0
  0
LINE
  5
137
330
1F
100
AcDbEntity
  8
0
  6
Continuous
 62
     7
370
    15
100
AcDbLine
 10
167.4718685055907
 20
410.6635196848903
 30
0.0
 11
195.9718685055907
 21
410.6635196848903
 31
0.0
  0
ARC
  5
138
330
1F
100
AcDbEntity
  8
0
  6
Continuous
 62
     7
370
    15
100
AcDbCircle
 10
195.9718685055907
 20
412.3135196848903
 30
0.0
 40
1.650000000000034
100
AcDbArc
 50
270.0
 51
90.0
  0
LINE
  5
139
330
1F
100
AcDbEntity
  8
0
  6
Continuous
 62
     7
370
    15
100
AcDbLine
 10
195.9718685055907
 20
413.9635196848903
 30
0.0
 11
167.4718685055907
 21
413.9635196848903
 31
0.0
  0
ARC
  5
13A
330
1F
100
AcDbEntity
  8
0
  6
Continuous
 62
     7
370
    15
100
AcDbCircle
 10
167.4718685055907
 20
412.3135196848903
 30
0.0
 40
1.650000000000034
100
AcDbArc
 50
90.0
 51
270.0
  0
LINE
  5
13B
330
1F
100
AcDbEntity
  8
0
  6
Continuous
 62
     7
370
    15
100
AcDbLine
 10
97.47186850559069
 20
410.6635196848903
 30
0.0
 11
125.9718685055907
 21
410.6635196848903
 31
0.0
  0
ARC
  5
13C
330
1F
100
AcDbEntity
  8
0
  6
Continuous
 62
     7
370
    15
100
AcDbCircle
 10
125.9718685055907
 20
412.3135196848903
 30
0.0
 40
1.650000000000034
100
AcDbArc
 50
270.0
 51
90.0
  0
LINE
  5
13D
330
1F
100
AcDbEntity
  8
0
  6
Continuous
 62
     7
370
    15
100
AcDbLine
 10
125.9718685055907
 20
413.9635196848903
 30
0.0
 11
97.47186850559069
 21
413.9635196848903
 31
0.0
  0
ARC
  5
13E
330
1F
100
AcDbEntity
  8
0
  6
Continuous
 62
     7
370
    15
100
AcDbCircle
 10
97.47186850559069
 20
412.3135196848903
 30
0.0
 40
1.650000000000034
100
AcDbArc
 50
90.0
 51
270.0
  0
LINE
  5
13F
330
1F
100
AcDbEntity
  8
0
  6
Continuous
 62
     7
370
    15
100
AcDbLine
 10
27.47186850559069
 20
410.6635196848903
 30
0.0
 11
55.9718685055907
 21
410.6635196848903
 31
0.0
  0
ARC
  5
140
330
1F
100
AcDbEntity
  8
0
  6
Continuous
 62
     7
370
    15
100
AcDbCircle
 10
55.9718685055907
 20
412.3135196848903
 30
0.0
 40
1.650000000000034
100
AcDbArc
 50
270.0
 51
90.0
  0
LINE
  5
141
330
1F
100
AcDbEntity
  8
0
  6
Continuous
 62
     7
370
    15
100
AcDbLine
 10
55.9718685055907
 20
413.9635196848903
 30
0.0
 11
27.47186850559069
 21
413.9635196848903
 31
0.0
  0
ARC
  5
142
330
1F
100
AcDbEntity
  8
0
  6
Continuous
 62
     7
370
    15
100
AcDbCircle
 10
27.47186850559069
 20
412.3135196848903
 30
0.0
 40
1.650000000000034
100
AcDbArc
 50
90.0
 51
270.0
  0
LINE
  5
143
330
1F
100
AcDbEntity
  8
0
  6
Continuous
 62
     7
370
    15
100
AcDbLine
 10
27.47186850559069
 20
174.6635196848903
 30
0.0
 11
55.9718685055907
 21
174.6635196848903
 31
0.0
  0
ARC
  5
144
330
1F
100
AcDbEntity
  8
0
  6
Continuous
 62
     7
370
    15
100
AcDbCircle
 10
55.9718685055907
 20
176.3135196848903
 30
0.0
 40
1.650000000000005
100
AcDbArc
 50
270.0
 51
90.0
  0
LINE
  5
145
330
1F
100
AcDbEntity
  8
0
  6
Continuous
 62
     7
370
    15
100
AcDbLine
 10
55.9718685055907
 20
177.9635196848903
 30
0.0
 11
27.47186850559069
 21
177.9635196848903
 31
0.0
  0
ARC
  5
146
330
1F
100
AcDbEntity
  8
0
  6
Continuous
 62
     7
370
    15
100
AcDbCircle
 10
27.47186850559069
 20
176.3135196848903
 30
0.0
 40
1.650000000000005
100
AcDbArc
 50
90.0
 51
270.0
  0
LINE
  5
147
330
1F
100
AcDbEntity
  8
0
  6
Continuous
 62
     7
370
    15
100
AcDbLine
 10
97.47186850559069
 20
174.6635196848903
 30
0.0
 11
125.9718685055907
 21
174.6635196848903
 31
0.0
  0
ARC
  5
148
330
1F
100
AcDbEntity
  8
0
  6
Continuous
 62
     7
370
    15
100
AcDbCircle
 10
125.9718685055907
 20
176.3135196848903
 30
0.0
 40
1.650000000000005
100
AcDbArc
 50
270.0
 51
90.0
  0
LINE
  5
149
330
1F
100
AcDbEntity
  8
0
  6
Continuous
 62
     7
370
    15
100
AcDbLine
 10
125.9718685055907
 20
177.9635196848903
 30
0.0
 11
97.47186850559069
 21
177.9635196848903
 31
0.0
  0
ARC
  5
14A
330
1F
100
AcDbEntity
  8
0
  6
Continuous
 62
     7
370
    15
100
AcDbCircle
 10
97.47186850559069
 20
176.3135196848903
 30
0.0
 40
1.650000000000005
100
AcDbArc
 50
90.0
 51
270.0
  0
LINE
  5
14B
330
1F
100
AcDbEntity
  8
0
  6
Continuous
 62
     7
370
    15
100
AcDbLine
 10
167.4718685055907
 20
174.6635196848903
 30
0.0
 11
195.9718685055907
 21
174.6635196848903
 31
0.0
  0
ARC
  5
14C
330
1F
100
AcDbEntity
  8
0
  6
Continuous
 62
     7
370
    15
100
AcDbCircle
 10
195.9718685055907
 20
176.3135196848903
 30
0.0
 40
1.650000000000005
100
AcDbArc
 50
270.0
 51
90.0
  0
LINE
  5
14D
330
1F
100
AcDbEntity
  8
0
  6
Continuous
 62
     7
370
    15
100
AcDbLine
 10
195.9718685055907
 20
177.9635196848903
 30
0.0
 11
167.4718685055907
 21
177.9635196848903
 31
0.0
  0
ARC
  5
14E
330
1F
100
AcDbEntity
  8
0
  6
Continuous
 62
     7
370
    15
100
AcDbCircle
 10
167.4718685055907
 20
176.3135196848903
 30
0.0
 40
1.650000000000005
100
AcDbArc
 50
90.0
 51
270.0
  0
CIRCLE
  5
14F
330
1F
100
AcDbEntity
  8
0
  6
Continuous
 62
     7
370
    15
100
AcDbCircle
 10
111.7218685055907
 20
373.5635196848904
 30
0.0
 40
1.625000000000056
  0
CIRCLE
  5
150
330
1F
100
AcDbEntity
  8
0
  6
Continuous
 62
     7
370
    15
100
AcDbCircle
 10
102.4120954148907
 20
389.6885196848904
 30
0.0
 40
1.625
  0
CIRCLE
  5
151
330
1F
100
AcDbEntity
  8
0
  6
Continuous
 62
     7
370
    15
100
AcDbCircle
 10
121.0316415961907
 20
389.6885196848904
 30
0.0
 40
1.625000000000056
  0
CIRCLE
  5
152
330
1F
100
AcDbEntity
  8
0
  6
Continuous
 62
     7
370
    15
100
AcDbCircle
 10
46.7218685055907
 20
373.5635196848904
 30
0.0
 40
1.625
  0
CIRCLE
  5
153
330
1F
100
AcDbEntity
  8
0
  6
Continuous
 62
     7
370
    15
100
AcDbCircle
 10
37.4120954148907
 20
389.6885196848904
 30
0.0
 40
1.625
  0
CIRCLE
  5
154
330
1F
100
AcDbEntity
  8
0
  6
Continuous
 62
     7
370
    15
100
AcDbCircle
 10
56.03164159619069
 20
389.6885196848904
 30
0.0
 40
1.625
  0
CIRCLE
  5
155
330
1F
100
AcDbEntity
  8
0
  6
Continuous
 62
     7
370
    15
100
AcDbCircle
 10
167.4120954148907
 20
389.6885196848904
 30
0.0
 40
1.625
  0
CIRCLE
  5
156
330
1F
100
AcDbEntity
  8
0
  6
Continuous
 62
     7
370
    15
100
AcDbCircle
 10
186.0316415961907
 20
389.6885196848904
 30
0.0
 40
1.625
  0
CIRCLE
  5
157
330
1F
100
AcDbEntity
  8
0
  6
Continuous
 62
     7
370
    15
100
AcDbCircle
 10
176.7218685055907
 20
373.5635196848904
 30
0.0
 40
1.625000000000056
  0
LINE
  5
158
330
1F
100
AcDbEntity
  8
0
  6
Continuous
 62
     7
370
    15
100
AcDbLine
 10
69.22186850559069
 20
345.3135196848904
 30
0.0
 11
152.2218685055907
 21
345.3135196848904
 31
0.0
  0
LINE
  5
159
330
1F
100
AcDbEntity
  8
0
  6
Continuous
 62
     7
370
    15
100
AcDbLine
 10
152.2218685055907
 20
345.3135196848904
 30
0.0
 11
152.2218685055907
 21
364.3135196848904
 31
0.0
  0
LINE
  5
15A
330
1F
100
AcDbEntity
  8
0
  6
Continuous
 62
     7
370
    15
100
AcDbLine
 10
152.2218685055907
 20
364.3135196848904
 30
0.0
 11
69.22186850559069
 21
364.3135196848904
 31
0.0
  0
LINE
  5
15B
330
1F
100
AcDbEntity
  8
0
  6
Continuous
 62
     7
370
    15
100
AcDbLine
 10
69.22186850559069
 20
364.3135196848904
 30
0.0
 11
69.22186850559069
 21
345.3135196848904
 31
0.0
  0
CIRCLE
  5
15C
330
1F
100
AcDbEntity
  8
0
  6
Continuous
 62
     7
370
    15
100
AcDbCircle
 10
65.72186850559069
 20
369.3135196848904
 30
0.0
 40
1.625
  0
CIRCLE
  5
15D
330
1F
100
AcDbEntity
  8
0
  6
Continuous
 62
     7
370
    15
100
AcDbCircle
 10
149.7218685055907
 20
369.3135196848904
 30
0.0
 40
1.625
  0
CIRCLE
  5
15E
330
1F
100
AcDbEntity
  8
0
  6
Continuous
 62
     7
370
    15
100
AcDbCircle
 10
149.7218685055907
 20
332.3135196848904
 30
0.0
 40
1.625000000000027
  0
CIRCLE
  5
15F
330
1F
100
AcDbEntity
  8
0
  6
Continuous
 62
     7
370
    15
100
AcDbCircle
 10
65.72186850559069
 20
332.3135196848904
 30
0.0
 40
1.625000000000027
  0
CIRCLE
  5
160
330
1F
100
AcDbEntity
  8
0
  6
Continuous
 62
     7
370
    15
100
AcDbCircle
 10
72.72186850559069
 20
275.9635196848904
 30
0.0
 40
1.625
  0
CIRCLE
  5
161
330
1F
100
AcDbEntity
  8
0
  6
Continuous
 62
     7
370
    15
100
AcDbCircle
 10
72.72186850559069
 20
197.9635196848903
 30
0.0
 40
1.625000000000014
  0
CIRCLE
  5
162
330
1F
100
AcDbEntity
  8
0
  6
Continuous
 62
     7
370
    15
100
AcDbCircle
 10
150.7218685055907
 20
197.9635196848903
 30
0.0
 40
1.625000000000014
  0
CIRCLE
  5
163
330
1F
100
AcDbEntity
  8
0
  6
Continuous
 62
     7
370
    15
100
AcDbCircle
 10
150.7218685055907
 20
275.9635196848904
 30
0.0
 40
1.625
  0
CIRCLE
  5
164
330
1F
100
AcDbEntity
  8
0
  6
Continuous
 62
     7
370
    15
100
AcDbCircle
 10
72.72186850559069
 20
312.3135196848904
 30
0.0
 40
1.624999999999972
  0
CIRCLE
  5
165
330
1F
100
AcDbEntity
  8
0
  6
Continuous
 62
     7
370
    15
100
AcDbCircle
 10
72.72186850559069
 20
234.3135196848904
 30
0.0
 40
1.625000000000027
  0
CIRCLE
  5
166
330
1F
100
AcDbEntity
  8
0
  6
Continuous
 62
     7
370
    15
100
AcDbCircle
 10
150.7218685055907
 20
234.3135196848904
 30
0.0
 40
1.625000000000027
  0
CIRCLE
  5
167
330
1F
100
AcDbEntity
  8
0
  6
Continuous
 62
     7
370
    15
100
AcDbCircle
 10
150.7218685055907
 20
312.3135196848904
 30
0.0
 40
1.624999999999972
  0
CIRCLE
  5
168
330
1F
100
AcDbEntity
  8
0
  6
Continuous
 62
     7
370
    15
100
AcDbCircle
 10
84.2218685055907
 20
259.4635196848904
 30
0.0
 40
1.625
  0
CIRCLE
  5
169
330
1F
100
AcDbEntity
  8
0
  6
Continuous
 62
     7
370
    15
100
AcDbCircle
 10
111.7218685055907
 20
259.4635196848904
 30
0.0
 40
1.625
  0
CIRCLE
  5
16A
330
1F
100
AcDbEntity
  8
0
  6
Continuous
 62
     7
370
    15
100
AcDbCircle
 10
139.2218685055907
 20
259.4635196848904
 30
0.0
 40
1.625
  0
CIRCLE
  5
16B
330
1F
100
AcDbEntity
  8
0
  6
Continuous
 62
     7
370
    15
100
AcDbCircle
 10
139.2218685055907
 20
214.4635196848903
 30
0.0
 40
1.625
  0
CIRCLE
  5
16C
330
1F
100
AcDbEntity
  8
0
  6
Continuous
 62
     7
370
    15
100
AcDbCircle
 10
111.7218685055907
 20
214.4635196848903
 30
0.0
 40
1.625
  0
CIRCLE
  5
16D
330
1F
100
AcDbEntity
  8
0
  6
Continuous
 62
     7
370
    15
100
AcDbCircle
 10
84.2218685055907
 20
214.4635196848903
 30
0.0
 40
1.625
  0
CIRCLE
  5
16E
330
1F
100
AcDbEntity
  8
0
  6
Continuous
 62
     7
370
    15
100
AcDbCircle
 10
84.2218685055907
 20
304.4635196848903
 30
0.0
 40
1.625
  0
CIRCLE
  5
16F
330
1F
100
AcDbEntity
  8
0
  6
Continuous
 62
     7
370
    15
100
AcDbCircle
 10
111.7218685055907
 20
304.4635196848903
 30
0.0
 40
1.625
  0
CIRCLE
  5
170
330
1F
100
AcDbEntity
  8
0
  6
Continuous
 62
     7
370
    15
100
AcDbCircle
 10
139.2218685055907
 20
304.4635196848903
 30
0.0
 40
1.625
  0
LINE
  5
171
330
1F
100
AcDbEntity
  8
0
  6
Continuous
 62
     7
370
    15
100
AcDbLine
 10
217.9953537850907
 20
108.6093227881903
 30
0.0
 11
214.9303176835906
 21
108.6093227881903
 31
0.0
  0
LINE
  5
172
330
1F
100
AcDbEntity
  8
0
  6
Continuous
 62
     7
370
    15
100
AcDbLine
 10
214.9303176835906
 20
108.6093227881903
 30
0.0
 11
214.9303176835906
 21
148.6093227881903
 31
0.0
  0
LINE
  5
173
330
1F
100
AcDbEntity
  8
0
  6
Continuous
 62
     7
370
    15
100
AcDbLine
 10
214.9303176835906
 20
148.6093227881903
 30
0.0
 11
217.9953537850907
 21
148.6093227881903
 31
0.0
  0
ARC
  5
174
330
1F
100
AcDbEntity
  8
0
  6
Continuous
 62
     7
370
    15
100
AcDbCircle
 10
219.3803176835907
 20
149.4593227881903
 30
0.0
 40
1.625000000000015
100
AcDbArc
 50
211.5388726535
 51
58.4611273465001
  0
LINE
  5
175
330
1F
100
AcDbEntity
  8
0
  6
Continuous
 62
     7
370
    15
100
AcDbLine
 10
220.2303176835907
 20
150.8442866865903
 30
0.0
 11
220.2303176835907
 21
151.6093227881903
 31
0.0
  0
LINE
  5
176
330
1F
100
AcDbEntity
  8
0
  6
Continuous
 62
     7
370
    15
100
AcDbLine
 10
250.2303176835907
 20
151.6093227881903
 30
0.0
 11
250.2303176835907
 21
150.8442866865903
 31
0.0
  0
ARC
  5
177
330
1F
100
AcDbEntity
  8
0
  6
Continuous
 62
     7
370
    15
100
AcDbCircle
 10
251.0803176835907
 20
149.4593227881903
 30
0.0
 40
1.625000000000014
100
AcDbArc
 50
121.5388726534999
 51
328.4611273464999
  0
LINE
  5
178
330
1F
100
AcDbEntity
  8
0
  6
Continuous
 62
     7
370
    15
100
AcDbLine
 10
252.4652815819907
 20
148.6093227881903
 30
0.0
 11
312.9953537850907
 21
148.6093227881903
 31
0.0
  0
ARC
  5
179
330
1F
100
AcDbEntity
  8
0
  6
Continuous
 62
     7
370
    15
100
AcDbCircle
 10
314.3803176835907
 20
149.4593227881903
 30
0.0
 40
1.625000000000064
100
AcDbArc
 50
211.5388726535
 51
58.4611273465001
  0
LINE
  5
17A
330
1F
100
AcDbEntity
  8
0
  6
Continuous
 62
     7
370
    15
100
AcDbLine
 10
315.2303176835907
 20
150.8442866865903
 30
0.0
 11
315.2303176835907
 21
151.6093227881903
 31
0.0
  0
LINE
  5
17B
330
1F
100
AcDbEntity
  8
0
  6
Continuous
 62
     7
370
    15
100
AcDbLine
 10
345.2303176835907
 20
151.6093227881903
 30
0.0
 11
345.2303176835907
 21
150.8442866865903
 31
0.0
  0
ARC
  5
17C
330
1F
100
AcDbEntity
  8
0
  6
Continuous
 62
     7
370
    15
100
AcDbCircle
 10
346.0803176835907
 20
149.4593227881903
 30
0.0
 40
1.625000000000015
100
AcDbArc
 50
121.5388726534999
 51
328.4611273464999
  0
LINE
  5
17D
330
1F
100
AcDbEntity
  8
0
  6
Continuous
 62
     7
370
    15
100
AcDbLine
 10
347.4652815819907
 20
148.6093227881903
 30
0.0
 11
407.9953537850907
 21
148.6093227881903
 31
0.0
  0
ARC
  5
17E
330
1F
100
AcDbEntity
  8
0
  6
Continuous
 62
     7
370
    15
100
AcDbCircle
 10
409.3803176835907
 20
149.4593227881903
 30
0.0
 40
1.625000000000014
100
AcDbArc
 50
211.5388726535
 51
58.4611273465001
  0
LINE
  5
17F
330
1F
100
AcDbEntity
  8
0
  6
Continuous
 62
     7
370
    15
100
AcDbLine
 10
410.2303176835906
 20
150.8442866865903
 30
0.0
 11
410.2303176835906
 21
151.6093227881903
 31
0.0
  0
LINE
  5
180
330
1F
100
AcDbEntity
  8
0
  6
Continuous
 62
     7
370
    15
100
AcDbLine
 10
440.2303176835906
 20
151.6093227881903
 30
0.0
 11
440.2303176835906
 21
150.8442866865903
 31
0.0
  0
ARC
  5
181
330
1F
100
AcDbEntity
  8
0
  6
Continuous
 62
     7
370
    15
100
AcDbCircle
 10
441.0803176835907
 20
149.4593227881903
 30
0.0
 40
1.625000000000014
100
AcDbArc
 50
121.5388726534999
 51
328.4611273464999
  0
LINE
  5
182
330
1F
100
AcDbEntity
  8
0
  6
Continuous
 62
     7
370
    15
100
AcDbLine
 10
442.4652815819907
 20
148.6093227881903
 30
0.0
 11
445.5303176835906
 21
148.6093227881903
 31
0.0
  0
LINE
  5
183
330
1F
100
AcDbEntity
  8
0
  6
Continuous
 62
     7
370
    15
100
AcDbLine
 10
445.5303176835906
 20
148.6093227881903
 30
0.0
 11
445.5303176835906
 21
108.6093227881903
 31
0.0
  0
LINE
  5
184
330
1F
100
AcDbEntity
  8
0
  6
Continuous
 62
     7
370
    15
100
AcDbLine
 10
445.5303176835906
 20
108.6093227881903
 30
0.0
 11
442.4652815819907
 21
108.6093227881903
 31
0.0
  0
ARC
  5
185
330
1F
100
AcDbEntity
  8
0
  6
Continuous
 62
     7
370
    15
100
AcDbCircle
 10
441.0803176835907
 20
107.7593227881903
 30
0.0
 40
1.625000000000014
100
AcDbArc
 50
31.53887265350007
 51
238.4611273465001
  0
LINE
  5
186
330
1F
100
AcDbEntity
  8
0
  6
Continuous
 62
     7
370
    15
100
AcDbLine
 10
440.2303176835906
 20
106.3743588896903
 30
0.0
 11
440.2303176835906
 21
105.6093227881903
 31
0.0
  0
LINE
  5
187
330
1F
100
AcDbEntity
  8
0
  6
Continuous
 62
     7
370
    15
100
AcDbLine
 10
410.2303176835906
 20
105.6093227881903
 30
0.0
 11
410.2303176835906
 21
106.3743588896903
 31
0.0
  0
ARC
  5
188
330
1F
100
AcDbEntity
  8
0
  6
Continuous
 62
     7
370
    15
100
AcDbCircle
 10
409.3803176835907
 20
107.7593227881903
 30
0.0
 40
1.625000000000014
100
AcDbArc
 50
301.5388726534999
 51
148.4611273464999
  0
LINE
  5
189
330
1F
100
AcDbEntity
  8
0
  6
Continuous
 62
     7
370
    15
100
AcDbLine
 10
407.9953537850907
 20
108.6093227881903
 30
0.0
 11
347.4652815819907
 21
108.6093227881903
 31
0.0
  0
ARC
  5
18A
330
1F
100
AcDbEntity
  8
0
  6
Continuous
 62
     7
370
    15
100
AcDbCircle
 10
346.0803176835907
 20
107.7593227881903
 30
0.0
 40
1.625000000000019
100
AcDbArc
 50
31.53887265350007
 51
238.4611273465001
  0
LINE
  5
18B
330
1F
100
AcDbEntity
  8
0
  6
Continuous
 62
     7
370
    15
100
AcDbLine
 10
345.2303176835907
 20
106.3743588896903
 30
0.0
 11
345.2303176835907
 21
105.6093227881903
 31
0.0
  0
LINE
  5
18C
330
1F
100
AcDbEntity
  8
0
  6
Continuous
 62
     7
370
    15
100
AcDbLine
 10
315.2303176835907
 20
105.6093227881903
 30
0.0
 11
315.2303176835907
 21
106.3743588896903
 31
0.0
  0
ARC
  5
18D
330
1F
100
AcDbEntity
  8
0
  6
Continuous
 62
     7
370
    15
100
AcDbCircle
 10
314.3803176835907
 20
107.7593227881903
 30
0.0
 40
1.625000000000061
100
AcDbArc
 50
301.5388726534999
 51
148.4611273464999
  0
LINE
  5
18E
330
1F
100
AcDbEntity
  8
0
  6
Continuous
 62
     7
370
    15
100
AcDbLine
 10
312.9953537850907
 20
108.6093227881903
 30
0.0
 11
252.4652815819907
 21
108.6093227881903
 31
0.0
  0
ARC
  5
18F
330
1F
100
AcDbEntity
  8
0
  6
Continuous
 62
     7
370
    15
100
AcDbCircle
 10
251.0803176835907
 20
107.7593227881903
 30
0.0
 40
1.625000000000024
100
AcDbArc
 50
31.53887265350007
 51
238.4611273465001
  0
LINE
  5
190
330
1F
100
AcDbEntity
  8
0
  6
Continuous
 62
     7
370
    15
100
AcDbLine
 10
250.2303176835907
 20
106.3743588896903
 30
0.0
 11
250.2303176835907
 21
105.6093227881903
 31
0.0
  0
LINE
  5
191
330
1F
100
AcDbEntity
  8
0
  6
Continuous
 62
     7
370
    15
100
AcDbLine
 10
220.2303176835907
 20
105.6093227881903
 30
0.0
 11
220.2303176835907
 21
106.3743588896903
 31
0.0
  0
ARC
  5
192
330
1F
100
AcDbEntity
  8
0
  6
Continuous
 62
     7
370
    15
100
AcDbCircle
 10
219.3803176835907
 20
107.7593227881903
 30
0.0
 40
1.625000000000011
100
AcDbArc
 50
301.5388726534999
 51
148.4611273464999
  0
CIRCLE
  5
193
330
1F
100
AcDbEntity
  8
0
  6
Continuous
 62
     7
370
    15
100
AcDbCircle
 10
245.2303176835907
 20
128.6093227881903
 30
0.0
 40
7.0
  0
CIRCLE
  5
194
330
1F
100
AcDbEntity
  8
0
  6
Continuous
 62
     7
370
    15
100
AcDbCircle
 10
415.2303176835906
 20
128.6093227881903
 30
0.0
 40
7.0
  0
CIRCLE
  5
195
330
1F
100
AcDbEntity
  8
0
  6
Continuous
 62
     7
370
    15
100
AcDbCircle
 10
408.2303176835906
 20
144.3593227881903
 30
0.0
 40
1.625000000000056
  0
CIRCLE
  5
196
330
1F
100
AcDbEntity
  8
0
  6
Continuous
 62
     7
370
    15
100
AcDbCircle
 10
408.2303176835906
 20
112.8593227881903
 30
0.0
 40
1.625000000000056
  0
CIRCLE
  5
197
330
1F
100
AcDbEntity
  8
0
  6
Continuous
 62
     7
370
    15
100
AcDbCircle
 10
394.5904175739907
 20
120.7343227881903
 30
0.0
 40
1.625
  0
CIRCLE
  5
198
330
1F
100
AcDbEntity
  8
0
  6
Continuous
 62
     7
370
    15
100
AcDbCircle
 10
394.5904175739907
 20
136.4843227881903
 30
0.0
 40
1.625
  0
CIRCLE
  5
199
330
1F
100
AcDbEntity
  8
0
  6
Continuous
 62
     7
370
    15
100
AcDbCircle
 10
421.8702177931906
 20
136.4843227881903
 30
0.0
 40
1.625
  0
CIRCLE
  5
19A
330
1F
100
AcDbEntity
  8
0
  6
Continuous
 62
     7
370
    15
100
AcDbCircle
 10
421.8702177931906
 20
120.7343227881903
 30
0.0
 40
1.625000000000056
  0
CIRCLE
  5
19B
330
1F
100
AcDbEntity
  8
0
  6
Continuous
 62
     7
370
    15
100
AcDbCircle
 10
252.2303176835907
 20
144.3593227881903
 30
0.0
 40
1.625
  0
CIRCLE
  5
19C
330
1F
100
AcDbEntity
  8
0
  6
Continuous
 62
     7
370
    15
100
AcDbCircle
 10
265.8702177931907
 20
136.4843227881903
 30
0.0
 40
1.624999999999943
  0
CIRCLE
  5
19D
330
1F
100
AcDbEntity
  8
0
  6
Continuous
 62
     7
370
    15
100
AcDbCircle
 10
265.8702177931907
 20
120.7343227881903
 30
0.0
 40
1.624999999999943
  0
CIRCLE
  5
19E
330
1F
100
AcDbEntity
  8
0
  6
Continuous
 62
     7
370
    15
100
AcDbCircle
 10
252.2303176835907
 20
112.8593227881903
 30
0.0
 40
1.625
  0
CIRCLE
  5
19F
330
1F
100
AcDbEntity
  8
0
  6
Continuous
 62
     7
370
    15
100
AcDbCircle
 10
238.5904175739907
 20
120.7343227881903
 30
0.0
 40
1.625
  0
CIRCLE
  5
1A0
330
1F
100
AcDbEntity
  8
0
  6
Continuous
 62
     7
370
    15
100
AcDbCircle
 10
238.5904175739907
 20
136.4843227881903
 30
0.0
 40
1.625
  0
LINE
  5
1A1
330
1F
100
AcDbEntity
  8
0
  6
Continuous
 62
     7
370
    15
100
AcDbLine
 10
410.2303176835906
 20
105.6093227881903
 30
0.0
 11
440.2303176835906
 21
105.6093227881903
 31
0.0
  0
LINE
  5
1A2
330
1F
100
AcDbEntity
  8
0
  6
Continuous
 62
     7
370
    15
100
AcDbLine
 10
440.2303176835906
 20
151.6093227881903
 30
0.0
 11
410.2303176835906
 21
151.6093227881903
 31
0.0
  0
LINE
  5
1A3
330
1F
100
AcDbEntity
  8
0
  6
Continuous
 62
     7
370
    15
100
AcDbLine
 10
250.2303176835907
 20
151.6093227881903
 30
0.0
 11
220.2303176835907
 21
151.6093227881903
 31
0.0
  0
LINE
  5
1A4
330
1F
100
AcDbEntity
  8
0
  6
Continuous
 62
     7
370
    15
100
AcDbLine
 10
345.2303176835907
 20
151.6093227881903
 30
0.0
 11
315.2303176835907
 21
151.6093227881903
 31
0.0
  0
LINE
  5
1A5
330
1F
100
AcDbEntity
  8
0
  6
Continuous
 62
     7
370
    15
100
AcDbLine
 10
315.2303176835907
 20
105.6093227881903
 30
0.0
 11
345.2303176835907
 21
105.6093227881903
 31
0.0
  0
LINE
  5
1A6
330
1F
100
AcDbEntity
  8
0
  6
Continuous
 62
     7
370
    15
100
AcDbLine
 10
220.2303176835907
 20
105.6093227881903
 30
0.0
 11
250.2303176835907
 21
105.6093227881903
 31
0.0
  0
LINE
  5
1C3
330
1F
100
AcDbEntity
  8
0
  6
Continuous
 62
     7
370
    15
100
AcDbLine
 10
18.9205730159284
 20
85.3494110953574
 30
0.0
 11
11.15554066492841
 21
85.3494110953574
 31
0.0
  0
ARC
  5
1C4
330
1F
100
AcDbEntity
  8
0
  6
Continuous
 62
     7
370
    15
100
AcDbCircle
 10
20.30553947282841
 20
86.1994115424574
 30
0.0
 40
1.625000000000011
100
AcDbArc
 50
211.5388726535
 51
58.46112734650017
  0
LINE
  5
1C5
330
1F
100
AcDbEntity
  8
0
  6
Continuous
 62
     7
370
    15
100
AcDbLine
 10
21.15553857882841
 20
88.34941158715739
 30
0.0
 11
21.15553857882841
 21
87.58437479555739
 31
0.0
  0
LINE
  5
1C6
330
1F
100
AcDbEntity
  8
0
  6
Continuous
 62
     7
370
    15
100
AcDbLine
 10
51.1555397709284
 20
87.58437479555739
 30
0.0
 11
51.1555397709284
 21
88.34941158715739
 31
0.0
  0
ARC
  5
1C7
330
1F
100
AcDbEntity
  8
0
  6
Continuous
 62
     7
370
    15
100
AcDbCircle
 10
52.0055394728284
 20
86.1994115424574
 30
0.0
 40
1.625000000000006
100
AcDbArc
 50
121.5388726534998
 51
328.4611273464999
  0
LINE
  5
1C8
330
1F
100
AcDbEntity
  8
0
  6
Continuous
 62
     7
370
    15
100
AcDbLine
 10
88.92057517662841
 20
85.3494110953574
 30
0.0
 11
53.39050160842841
 21
85.3494110953574
 31
0.0
  0
ARC
  5
1C9
330
1F
100
AcDbEntity
  8
0
  6
Continuous
 62
     7
370
    15
100
AcDbCircle
 10
90.30553947282839
 20
86.1994115424574
 30
0.0
 40
1.625000000000003
100
AcDbArc
 50
211.5388726535
 51
58.46112734650017
  0
LINE
  5
1CA
330
1F
100
AcDbEntity
  8
0
  6
Continuous
 62
     7
370
    15
100
AcDbLine
 10
91.1555398081284
 20
88.34941158715739
 30
0.0
 11
91.1555398081284
 21
87.58437479555739
 31
0.0
  0
LINE
  5
1CB
330
1F
100
AcDbEntity
  8
0
  6
Continuous
 62
     7
370
    15
100
AcDbLine
 10
121.1555391376284
 20
87.58437479555739
 30
0.0
 11
121.1555391376284
 21
88.34941158715739
 31
0.0
  0
ARC
  5
1CC
330
1F
100
AcDbEntity
  8
0
  6
Continuous
 62
     7
370
    15
100
AcDbCircle
 10
122.0055394728284
 20
86.1994115424574
 30
0.0
 40
1.624999999999995
100
AcDbArc
 50
121.5388726534998
 51
328.4611273464999
  0
LINE
  5
1CD
330
1F
100
AcDbEntity
  8
0
  6
Continuous
 62
     7
370
    15
100
AcDbLine
 10
158.9205773373284
 20
85.3494110953574
 30
0.0
 11
123.3905037691284
 21
85.3494110953574
 31
0.0
  0
ARC
  5
1CE
330
1F
100
AcDbEntity
  8
0
  6
Continuous
 62
     7
370
    15
100
AcDbCircle
 10
160.3055394728284
 20
86.1994115424574
 30
0.0
 40
1.625000000000011
100
AcDbArc
 50
211.5388726535
 51
58.46112734650017
  0
LINE
  5
1CF
330
1F
100
AcDbEntity
  8
0
  6
Continuous
 62
     7
370
    15
100
AcDbLine
 10
161.1555391748284
 20
88.34941158715739
 30
0.0
 11
161.1555391748284
 21
87.58437479555739
 31
0.0
  0
LINE
  5
1D0
330
1F
100
AcDbEntity
  8
0
  6
Continuous
 62
     7
370
    15
100
AcDbLine
 10
191.1555403669284
 20
87.58437479555739
 30
0.0
 11
191.1555403669284
 21
88.34941158715739
 31
0.0
  0
ARC
  5
1D1
330
1F
100
AcDbEntity
  8
0
  6
Continuous
 62
     7
370
    15
100
AcDbCircle
 10
192.0055394728284
 20
86.1994115424574
 30
0.0
 40
1.625000000000014
100
AcDbArc
 50
121.5388726534998
 51
328.4611273464999
  0
LINE
  5
1D2
330
1F
100
AcDbEntity
  8
0
  6
Continuous
 62
     7
370
    15
100
AcDbLine
 10
201.1555382807284
 20
85.3494110953574
 30
0.0
 11
193.3905059297284
 21
85.3494110953574
 31
0.0
  0
LINE
  5
1D3
330
1F
100
AcDbEntity
  8
0
  6
Continuous
 62
     7
370
    15
100
AcDbLine
 10
201.1555382807284
 20
85.3494110953574
 30
0.0
 11
201.1555382807284
 21
45.34941198945739
 31
0.0
  0
LINE
  5
1D4
330
1F
100
AcDbEntity
  8
0
  6
Continuous
 62
     7
370
    15
100
AcDbLine
 10
193.3905059297284
 20
45.34941198945739
 30
0.0
 11
201.1555382807284
 21
45.34941198945739
 31
0.0
  0
ARC
  5
1D5
330
1F
100
AcDbEntity
  8
0
  6
Continuous
 62
     7
370
    15
100
AcDbCircle
 10
192.0055394728284
 20
44.49941154245739
 30
0.0
 40
1.625000000000011
100
AcDbArc
 50
31.53887265350008
 51
238.4611273465001
  0
LINE
  5
1D6
330
1F
100
AcDbEntity
  8
0
  6
Continuous
 62
     7
370
    15
100
AcDbLine
 10
191.1555403669284
 20
42.3494114977574
 30
0.0
 11
191.1555403669284
 21
43.11444828925739
 31
0.0
  0
LINE
  5
1D7
330
1F
100
AcDbEntity
  8
0
  6
Continuous
 62
     7
370
    15
100
AcDbLine
 10
161.1555391748284
 20
43.11444828925739
 30
0.0
 11
161.1555391748284
 21
42.3494114977574
 31
0.0
  0
ARC
  5
1D8
330
1F
100
AcDbEntity
  8
0
  6
Continuous
 62
     7
370
    15
100
AcDbCircle
 10
160.3055394728284
 20
44.49941154245739
 30
0.0
 40
1.625000000000007
100
AcDbArc
 50
301.5388726534998
 51
148.4611273464999
  0
LINE
  5
1D9
330
1F
100
AcDbEntity
  8
0
  6
Continuous
 62
     7
370
    15
100
AcDbLine
 10
123.3905037691284
 20
45.34941198945739
 30
0.0
 11
158.9205773373284
 21
45.34941198945739
 31
0.0
  0
ARC
  5
1DA
330
1F
100
AcDbEntity
  8
0
  6
Continuous
 62
     7
370
    15
100
AcDbCircle
 10
122.0055394728284
 20
44.49941154245739
 30
0.0
 40
1.625000000000008
100
AcDbArc
 50
31.53887265350008
 51
238.4611273465001
  0
LINE
  5
1DB
330
1F
100
AcDbEntity
  8
0
  6
Continuous
 62
     7
370
    15
100
AcDbLine
 10
121.1555391376284
 20
42.3494114977574
 30
0.0
 11
121.1555391376284
 21
43.11444828925739
 31
0.0
  0
LINE
  5
1DC
330
1F
100
AcDbEntity
  8
0
  6
Continuous
 62
     7
370
    15
100
AcDbLine
 10
91.1555398081284
 20
43.11444828925739
 30
0.0
 11
91.1555398081284
 21
42.3494114977574
 31
0.0
  0
ARC
  5
1DD
330
1F
100
AcDbEntity
  8
0
  6
Continuous
 62
     7
370
    15
100
AcDbCircle
 10
90.30553947282839
 20
44.49941154245739
 30
0.0
 40
1.625000000000004
100
AcDbArc
 50
301.5388726534998
 51
148.4611273464999
  0
LINE
  5
1DE
330
1F
100
AcDbEntity
  8
0
  6
Continuous
 62
     7
370
    15
100
AcDbLine
 10
53.39050160842841
 20
45.34941198945739
 30
0.0
 11
88.92057517662841
 21
45.34941198945739
 31
0.0
  0
ARC
  5
1DF
330
1F
100
AcDbEntity
  8
0
  6
Continuous
 62
     7
370
    15
100
AcDbCircle
 10
52.0055394728284
 20
44.49941154245739
 30
0.0
 40
1.625000000000011
100
AcDbArc
 50
31.53887265350008
 51
238.4611273465001
  0
LINE
  5
1E0
330
1F
100
AcDbEntity
  8
0
  6
Continuous
 62
     7
370
    15
100
AcDbLine
 10
51.1555397709284
 20
42.3494114977574
 30
0.0
 11
51.1555397709284
 21
43.11444828925739
 31
0.0
  0
LINE
  5
1E1
330
1F
100
AcDbEntity
  8
0
  6
Continuous
 62
     7
370
    15
100
AcDbLine
 10
21.15553857882841
 20
43.11444828925739
 30
0.0
 11
21.15553857882841
 21
42.3494114977574
 31
0.0
  0
ARC
  5
1E2
330
1F
100
AcDbEntity
  8
0
  6
Continuous
 62
     7
370
    15
100
AcDbCircle
 10
20.30553947282841
 20
44.49941154245739
 30
0.0
 40
1.625000000000004
100
AcDbArc
 50
301.5388726534998
 51
148.4611273464999
  0
LINE
  5
1E3
330
1F
100
AcDbEntity
  8
0
  6
Continuous
 62
     7
370
    15
100
AcDbLine
 10
11.15554066492841
 20
45.34941198945739
 30
0.0
 11
18.9205730159284
 21
45.34941198945739
 31
0.0
  0
LINE
  5
1E4
330
1F
100
AcDbEntity
  8
0
  6
Continuous
 62
     7
370
    15
100
AcDbLine
 10
11.15554066492841
 20
45.34941198945739
 30
0.0
 11
11.15554066492841
 21
85.3494110953574
 31
0.0
  0
LINE
  5
1E5
330
1F
100
AcDbEntity
  8
0
  6
Continuous
 62
     7
370
    15
100
AcDbLine
 10
21.15553857882841
 20
42.3494114977574
 30
0.0
 11
51.1555397709284
 21
42.3494114977574
 31
0.0
  0
LINE
  5
1E6
330
1F
100
AcDbEntity
  8
0
  6
Continuous
 62
     7
370
    15
100
AcDbLine
 10
191.1555403669284
 20
88.34941158715739
 30
0.0
 11
161.1555391748284
 21
88.34941158715739
 31
0.0
  0
LINE
  5
1E7
330
1F
100
AcDbEntity
  8
0
  6
Continuous
 62
     7
370
    15
100
AcDbLine
 10
51.1555397709284
 20
88.34941158715739
 30
0.0
 11
21.15553857882841
 21
88.34941158715739
 31
0.0
  0
LINE
  5
1E8
330
1F
100
AcDbEntity
  8
0
  6
Continuous
 62
     7
370
    15
100
AcDbLine
 10
121.1555391376284
 20
88.34941158715739
 30
0.0
 11
91.1555398081284
 21
88.34941158715739
 31
0.0
  0
LINE
  5
1E9
330
1F
100
AcDbEntity
  8
0
  6
Continuous
 62
     7
370
    15
100
AcDbLine
 10
161.1555391748284
 20
42.3494114977574
 30
0.0
 11
191.1555403669284
 21
42.3494114977574
 31
0.0
  0
LINE
  5
1EA
330
1F
100
AcDbEntity
  8
0
  6
Continuous
 62
     7
370
    15
100
AcDbLine
 10
91.1555398081284
 20
42.3494114977574
 30
0.0
 11
121.1555391376284
 21
42.3494114977574
 31
0.0
  0
LINE
  5
1EB
330
1F
100
AcDbEntity
  8
0
  6
Continuous
 62
     7
370
    15
100
AcDbLine
 10
218.1348810805284
 20
45.29244615395739
 30
0.0
 11
215.0698449790284
 21
45.29244615395739
 31
0.0
  0
LINE
  5
1EC
330
1F
100
AcDbEntity
  8
0
  6
Continuous
 62
     7
370
    15
100
AcDbLine
 10
215.0698449790284
 20
45.29244615395739
 30
0.0
 11
215.0698449790284
 21
85.29244615395739
 31
0.0
  0
LINE
  5
1ED
330
1F
100
AcDbEntity
  8
0
  6
Continuous
 62
     7
370
    15
100
AcDbLine
 10
215.0698449790284
 20
85.29244615395739
 30
0.0
 11
218.1348810805284
 21
85.29244615395739
 31
0.0
  0
ARC
  5
1EE
330
1F
100
AcDbEntity
  8
0
  6
Continuous
 62
     7
370
    15
100
AcDbCircle
 10
219.5198449790284
 20
86.14244615395739
 30
0.0
 40
1.625000000000015
100
AcDbArc
 50
211.5388726535
 51
58.46112734650017
  0
LINE
  5
1EF
330
1F
100
AcDbEntity
  8
0
  6
Continuous
 62
     7
370
    15
100
AcDbLine
 10
220.3698449790284
 20
87.52741005235739
 30
0.0
 11
220.3698449790284
 21
88.2924461539574
 31
0.0
  0
LINE
  5
1F0
330
1F
100
AcDbEntity
  8
0
  6
Continuous
 62
     7
370
    15
100
AcDbLine
 10
250.3698449790284
 20
88.2924461539574
 30
0.0
 11
250.3698449790284
 21
87.52741005235739
 31
0.0
  0
ARC
  5
1F1
330
1F
100
AcDbEntity
  8
0
  6
Continuous
 62
     7
370
    15
100
AcDbCircle
 10
251.2198449790284
 20
86.14244615395739
 30
0.0
 40
1.625000000000014
100
AcDbArc
 50
121.5388726534998
 51
328.4611273464999
  0
LINE
  5
1F2
330
1F
100
AcDbEntity
  8
0
  6
Continuous
 62
     7
370
    15
100
AcDbLine
 10
252.6048088774284
 20
85.29244615395739
 30
0.0
 11
313.1348810805285
 21
85.29244615395739
 31
0.0
  0
ARC
  5
1F3
330
1F
100
AcDbEntity
  8
0
  6
Continuous
 62
     7
370
    15
100
AcDbCircle
 10
314.5198449790284
 20
86.14244615395739
 30
0.0
 40
1.625000000000064
100
AcDbArc
 50
211.5388726535
 51
58.46112734650017
  0
LINE
  5
1F4
330
1F
100
AcDbEntity
  8
0
  6
Continuous
 62
     7
370
    15
100
AcDbLine
 10
315.3698449790284
 20
87.52741005235739
 30
0.0
 11
315.3698449790284
 21
88.2924461539574
 31
0.0
  0
LINE
  5
1F5
330
1F
100
AcDbEntity
  8
0
  6
Continuous
 62
     7
370
    15
100
AcDbLine
 10
345.3698449790284
 20
88.2924461539574
 30
0.0
 11
345.3698449790284
 21
87.52741005235739
 31
0.0
  0
ARC
  5
1F6
330
1F
100
AcDbEntity
  8
0
  6
Continuous
 62
     7
370
    15
100
AcDbCircle
 10
346.2198449790284
 20
86.14244615395739
 30
0.0
 40
1.625000000000015
100
AcDbArc
 50
121.5388726534998
 51
328.4611273464999
  0
LINE
  5
1F7
330
1F
100
AcDbEntity
  8
0
  6
Continuous
 62
     7
370
    15
100
AcDbLine
 10
347.6048088774284
 20
85.29244615395739
 30
0.0
 11
408.1348810805285
 21
85.29244615395739
 31
0.0
  0
ARC
  5
1F8
330
1F
100
AcDbEntity
  8
0
  6
Continuous
 62
     7
370
    15
100
AcDbCircle
 10
409.5198449790284
 20
86.14244615395739
 30
0.0
 40
1.625000000000014
100
AcDbArc
 50
211.5388726535
 51
58.46112734650017
  0
LINE
  5
1F9
330
1F
100
AcDbEntity
  8
0
  6
Continuous
 62
     7
370
    15
100
AcDbLine
 10
410.3698449790284
 20
87.52741005235739
 30
0.0
 11
410.3698449790284
 21
88.2924461539574
 31
0.0
  0
LINE
  5
1FA
330
1F
100
AcDbEntity
  8
0
  6
Continuous
 62
     7
370
    15
100
AcDbLine
 10
440.3698449790284
 20
88.2924461539574
 30
0.0
 11
440.3698449790284
 21
87.52741005235739
 31
0.0
  0
ARC
  5
1FB
330
1F
100
AcDbEntity
  8
0
  6
Continuous
 62
     7
370
    15
100
AcDbCircle
 10
441.2198449790284
 20
86.14244615395739
 30
0.0
 40
1.625000000000014
100
AcDbArc
 50
121.5388726534998
 51
328.4611273464999
  0
LINE
  5
1FC
330
1F
100
AcDbEntity
  8
0
  6
Continuous
 62
     7
370
    15
100
AcDbLine
 10
442.6048088774284
 20
85.29244615395739
 30
0.0
 11
445.6698449790283
 21
85.29244615395739
 31
0.0
  0
LINE
  5
1FD
330
1F
100
AcDbEntity
  8
0
  6
Continuous
 62
     7
370
    15
100
AcDbLine
 10
445.6698449790283
 20
85.29244615395739
 30
0.0
 11
445.6698449790283
 21
45.29244615395739
 31
0.0
  0
LINE
  5
1FE
330
1F
100
AcDbEntity
  8
0
  6
Continuous
 62
     7
370
    15
100
AcDbLine
 10
445.6698449790283
 20
45.29244615395739
 30
0.0
 11
442.6048088774284
 21
45.29244615395739
 31
0.0
  0
ARC
  5
1FF
330
1F
100
AcDbEntity
  8
0
  6
Continuous
 62
     7
370
    15
100
AcDbCircle
 10
441.2198449790284
 20
44.4424461539574
 30
0.0
 40
1.625000000000014
100
AcDbArc
 50
31.53887265350008
 51
238.4611273465001
  0
LINE
  5
200
330
1F
100
AcDbEntity
  8
0
  6
Continuous
 62
     7
370
    15
100
AcDbLine
 10
440.3698449790284
 20
43.0574822554574
 30
0.0
 11
440.3698449790284
 21
42.2924461539574
 31
0.0
  0
LINE
  5
201
330
1F
100
AcDbEntity
  8
0
  6
Continuous
 62
     7
370
    15
100
AcDbLine
 10
410.3698449790284
 20
42.2924461539574
 30
0.0
 11
410.3698449790284
 21
43.0574822554574
 31
0.0
  0
ARC
  5
202
330
1F
100
AcDbEntity
  8
0
  6
Continuous
 62
     7
370
    15
100
AcDbCircle
 10
409.5198449790284
 20
44.4424461539574
 30
0.0
 40
1.625000000000014
100
AcDbArc
 50
301.5388726534998
 51
148.4611273464999
  0
LINE
  5
203
330
1F
100
AcDbEntity
  8
0
  6
Continuous
 62
     7
370
    15
100
AcDbLine
 10
408.1348810805285
 20
45.29244615395739
 30
0.0
 11
347.6048088774284
 21
45.29244615395739
 31
0.0
  0
ARC
  5
204
330
1F
100
AcDbEntity
  8
0
  6
Continuous
 62
     7
370
    15
100
AcDbCircle
 10
346.2198449790284
 20
44.4424461539574
 30
0.0
 40
1.625000000000019
100
AcDbArc
 50
31.53887265350008
 51
238.4611273465001
  0
LINE
  5
205
330
1F
100
AcDbEntity
  8
0
  6
Continuous
 62
     7
370
    15
100
AcDbLine
 10
345.3698449790284
 20
43.0574822554574
 30
0.0
 11
345.3698449790284
 21
42.2924461539574
 31
0.0
  0
LINE
  5
206
330
1F
100
AcDbEntity
  8
0
  6
Continuous
 62
     7
370
    15
100
AcDbLine
 10
315.3698449790284
 20
42.2924461539574
 30
0.0
 11
315.3698449790284
 21
43.0574822554574
 31
0.0
  0
ARC
  5
207
330
1F
100
AcDbEntity
  8
0
  6
Continuous
 62
     7
370
    15
100
AcDbCircle
 10
314.5198449790284
 20
44.4424461539574
 30
0.0
 40
1.625000000000061
100
AcDbArc
 50
301.5388726534998
 51
148.4611273464999
  0
LINE
  5
208
330
1F
100
AcDbEntity
  8
0
  6
Continuous
 62
     7
370
    15
100
AcDbLine
 10
313.1348810805285
 20
45.29244615395739
 30
0.0
 11
252.6048088774284
 21
45.29244615395739
 31
0.0
  0
ARC
  5
209
330
1F
100
AcDbEntity
  8
0
  6
Continuous
 62
     7
370
    15
100
AcDbCircle
 10
251.2198449790284
 20
44.4424461539574
 30
0.0
 40
1.625000000000024
100
AcDbArc
 50
31.53887265350008
 51
238.4611273465001
  0
LINE
  5
20A
330
1F
100
AcDbEntity
  8
0
  6
Continuous
 62
     7
370
    15
100
AcDbLine
 10
250.3698449790284
 20
43.0574822554574
 30
0.0
 11
250.3698449790284
 21
42.2924461539574
 31
0.0
  0
LINE
  5
20B
330
1F
100
AcDbEntity
  8
0
  6
Continuous
 62
     7
370
    15
100
AcDbLine
 10
220.3698449790284
 20
42.2924461539574
 30
0.0
 11
220.3698449790284
 21
43.0574822554574
 31
0.0
  0
ARC
  5
20C
330
1F
100
AcDbEntity
  8
0
  6
Continuous
 62
     7
370
    15
100
AcDbCircle
 10
219.5198449790284
 20
44.4424461539574
 30
0.0
 40
1.625000000000011
100
AcDbArc
 50
301.5388726534998
 51
148.4611273464999
  0
CIRCLE
  5
20D
330
1F
100
AcDbEntity
  8
0
  6
Continuous
 62
     7
370
    15
100
AcDbCircle
 10
245.3698449790284
 20
65.29244615395739
 30
0.0
 40
7.0
  0
CIRCLE
  5
20E
330
1F
100
AcDbEntity
  8
0
  6
Continuous
 62
     7
370
    15
100
AcDbCircle
 10
415.3698449790284
 20
65.29244615395739
 30
0.0
 40
7.0
  0
CIRCLE
  5
20F
330
1F
100
AcDbEntity
  8
0
  6
Continuous
 62
     7
370
    15
100
AcDbCircle
 10
408.3698449790284
 20
81.04244615395741
 30
0.0
 40
1.625000000000056
  0
CIRCLE
  5
210
330
1F
100
AcDbEntity
  8
0
  6
Continuous
 62
     7
370
    15
100
AcDbCircle
 10
408.3698449790284
 20
49.5424461539574
 30
0.0
 40
1.625000000000056
  0
CIRCLE
  5
211
330
1F
100
AcDbEntity
  8
0
  6
Continuous
 62
     7
370
    15
100
AcDbCircle
 10
394.7299448694284
 20
57.4174461539574
 30
0.0
 40
1.625
  0
CIRCLE
  5
212
330
1F
100
AcDbEntity
  8
0
  6
Continuous
 62
     7
370
    15
100
AcDbCircle
 10
394.7299448694284
 20
73.1674461539574
 30
0.0
 40
1.625
  0
CIRCLE
  5
213
330
1F
100
AcDbEntity
  8
0
  6
Continuous
 62
     7
370
    15
100
AcDbCircle
 10
422.0097450886284
 20
73.1674461539574
 30
0.0
 40
1.625
  0
CIRCLE
  5
214
330
1F
100
AcDbEntity
  8
0
  6
Continuous
 62
     7
370
    15
100
AcDbCircle
 10
422.0097450886284
 20
57.4174461539574
 30
0.0
 40
1.625000000000056
  0
CIRCLE
  5
215
330
1F
100
AcDbEntity
  8
0
  6
Continuous
 62
     7
370
    15
100
AcDbCircle
 10
252.3698449790284
 20
81.04244615395741
 30
0.0
 40
1.625
  0
CIRCLE
  5
216
330
1F
100
AcDbEntity
  8
0
  6
Continuous
 62
     7
370
    15
100
AcDbCircle
 10
266.0097450886285
 20
73.1674461539574
 30
0.0
 40
1.624999999999943
  0
CIRCLE
  5
217
330
1F
100
AcDbEntity
  8
0
  6
Continuous
 62
     7
370
    15
100
AcDbCircle
 10
266.0097450886285
 20
57.4174461539574
 30
0.0
 40
1.624999999999943
  0
CIRCLE
  5
218
330
1F
100
AcDbEntity
  8
0
  6
Continuous
 62
     7
370
    15
100
AcDbCircle
 10
252.3698449790284
 20
49.5424461539574
 30
0.0
 40
1.625
  0
CIRCLE
  5
219
330
1F
100
AcDbEntity
  8
0
  6
Continuous
 62
     7
370
    15
100
AcDbCircle
 10
238.7299448694284
 20
57.4174461539574
 30
0.0
 40
1.625
  0
CIRCLE
  5
21A
330
1F
100
AcDbEntity
  8
0
  6
Continuous
 62
     7
370
    15
100
AcDbCircle
 10
238.7299448694284
 20
73.1674461539574
 30
0.0
 40
1.625
  0
LINE
  5
21B
330
1F
100
AcDbEntity
  8
0
  6
Continuous
 62
     7
370
    15
100
AcDbLine
 10
410.3698449790284
 20
42.2924461539574
 30
0.0
 11
440.3698449790284
 21
42.2924461539574
 31
0.0
  0
LINE
  5
21C
330
1F
100
AcDbEntity
  8
0
  6
Continuous
 62
     7
370
    15
100
AcDbLine
 10
440.3698449790284
 20
88.2924461539574
 30
0.0
 11
410.3698449790284
 21
88.2924461539574
 31
0.0
  0
LINE
  5
21D
330
1F
100
AcDbEntity
  8
0
  6
Continuous
 62
     7
370
    15
100
AcDbLine
 10
250.3698449790284
 20
88.2924461539574
 30
0.0
 11
220.3698449790284
 21
88.2924461539574
 31
0.0
  0
LINE
  5
21E
330
1F
100
AcDbEntity
  8
0
  6
Continuous
 62
     7
370
    15
100
AcDbLine
 10
345.3698449790284
 20
88.2924461539574
 30
0.0
 11
315.3698449790284
 21
88.2924461539574
 31
0.0
  0
LINE
  5
21F
330
1F
100
AcDbEntity
  8
0
  6
Continuous
 62
     7
370
    15
100
AcDbLine
 10
315.3698449790284
 20
42.2924461539574
 30
0.0
 11
345.3698449790284
 21
42.2924461539574
 31
0.0
  0
LINE
  5
220
330
1F
100
AcDbEntity
  8
0
  6
Continuous
 62
     7
370
    15
100
AcDbLine
 10
220.3698449790284
 20
42.2924461539574
 30
0.0
 11
250.3698449790284
 21
42.2924461539574
 31
0.0
  0
ENDSEC
  0
SECTION
  2
OBJECTS
  0
DICTIONARY
  5
C
330
0
100
AcDbDictionary
281
     1
  3
ACAD_COLOR
350
1BE
  3
ACAD_GROUP
350
D
  3
ACAD_LAYOUT
350
1A
  3
ACAD_MATERIAL
350
1A9
  3
ACAD_MLINESTYLE
350
17
  3
ACAD_PLOTSETTINGS
350
19
  3
ACAD_PLOTSTYLENAME
350
E
  3
ACAD_TABLESTYLE
350
1BF
  3
ACAD_VISUALSTYLE
350
1AD
  3
AcDbVariableDictionary
350
221
  0
DICTIONARY
  5
1BE
102
{ACAD_REACTORS
330
C
102
}
330
C
100
AcDbDictionary
281
     1
  0
DICTIONARY
  5
D
102
{ACAD_REACTORS
330
C
102
}
330
C
100
AcDbDictionary
281
     1
  0
DICTIONARY
  5
1A
102
{ACAD_REACTORS
330
C
102
}
330
C
100
AcDbDictionary
281
     1
  3
Layout1
350
1E
  3
Layout2
350
26
  3
Model
350
22
  0
DICTIONARY
  5
1A9
102
{ACAD_REACTORS
330
C
102
}
330
C
100
AcDbDictionary
281
     1
  3
ByBlock
350
1AB
  3
ByLayer
350
1AA
  3
Global
350
1AC
  0
DICTIONARY
  5
17
102
{ACAD_REACTORS
330
C
102
}
330
C
100
AcDbDictionary
281
     1
  3
Standard
350
18
  0
DICTIONARY
  5
19
102
{ACAD_REACTORS
330
C
102
}
330
C
100
AcDbDictionary
281
     1
  0
ACDBDICTIONARYWDFLT
  5
E
102
{ACAD_REACTORS
330
C
102
}
330
C
100
AcDbDictionary
281
     1
  3
Normal
350
F
100
AcDbDictionaryWithDefault
340
F
  0
DICTIONARY
  5
1BF
102
{ACAD_REACTORS
330
C
102
}
330
C
100
AcDbDictionary
281
     1
  3
Standard
350
1C0
  0
DICTIONARY
  5
1AD
102
{ACAD_REACTORS
330
C
102
}
330
C
100
AcDbDictionary
281
     1
  3
2dWireframe
350
1B3
  3
3D Hidden
350
1B5
  3
3dWireframe
350
1B4
  3
Basic
350
1B2
  3
Brighten
350
1B9
  3
ColorChange
350
1BD
  3
Conceptual
350
1B6
  3
Dim
350
1B8
  3
Facepattern
350
1BC
  3
Flat
350
1AE
  3
FlatWithEdges
350
1AF
  3
Gouraud
350
1B0
  3
GouraudWithEdges
350
1B1
  3
Linepattern
350
1BB
  3
Realistic
350
1B7
  3
Thicken
350
1BA
  0
DICTIONARY
  5
221
102
{ACAD_REACTORS
330
C
102
}
330
C
100
AcDbDictionary
281
     1
  3
CTABLESTYLE
350
222
  0
LAYOUT
  5
1E
102
{ACAD_REACTORS
330
1A
102
}
330
1A
100
AcDbPlotSettings
  1

  2
none_device
  4

  6

 40
0.0
 41
0.0
 42
0.0
 43
0.0
 44
0.0
 45
0.0
 46
0.0
 47
0.0
 48
0.0
 49
0.0
140
0.0
141
0.0
142
1.0
143
1.0
 70
   688
 72
     0
 73
     0
 74
     5
  7

 75
    16
147
1.0
 76
     0
 77
     2
 78
   300
148
0.0
149
0.0
100
AcDbLayout
  1
Layout1
 70
     1
 71
     1
 10
0.0
 20
0.0
 11
420.0
 21
297.0
 12
0.0
 22
0.0
 32
0.0
 14
1.000000000000000E+20
 24
1.000000000000000E+20
 34
1.000000000000000E+20
 15
-1.000000000000000E+20
 25
-1.000000000000000E+20
 35
-1.000000000000000E+20
146
0.0
 13
0.0
 23
0.0
 33
0.0
 16
1.0
 26
0.0
 36
0.0
 17
0.0
 27
1.0
 37
0.0
 76
     0
330
1B
  0
LAYOUT
  5
26
102
{ACAD_REACTORS
330
1A
102
}
330
1A
100
AcDbPlotSettings
  1

  2
none_device
  4

  6

 40
0.0
 41
0.0
 42
0.0
 43
0.0
 44
0.0
 45
0.0
 46
0.0
 47
0.0
 48
0.0
 49
0.0
140
0.0
141
0.0
142
1.0
143
1.0
 70
   688
 72
     0
 73
     0
 74
     5
  7

 75
    16
147
1.0
 76
     0
 77
     2
 78
   300
148
0.0
149
0.0
100
AcDbLayout
  1
Layout2
 70
     1
 71
     2
 10
0.0
 20
0.0
 11
0.0
 21
0.0
 12
0.0
 22
0.0
 32
0.0
 14
0.0
 24
0.0
 34
0.0
 15
0.0
 25
0.0
 35
0.0
146
0.0
 13
0.0
 23
0.0
 33
0.0
 16
1.0
 26
0.0
 36
0.0
 17
0.0
 27
1.0
 37
0.0
 76
     0
330
23
  0
LAYOUT
  5
22
102
{ACAD_REACTORS
330
1A
102
}
330
1A
100
AcDbPlotSettings
  1

  2
none_device
  4

  6

 40
0.0
 41
0.0
 42
0.0
 43
0.0
 44
0.0
 45
0.0
 46
0.0
 47
0.0
 48
0.0
 49
0.0
140
0.0
141
0.0
142
1.0
143
1.0
 70
  1712
 72
     0
 73
     0
 74
     0
  7

 75
     0
147
1.0
 76
     0
 77
     2
 78
   300
148
0.0
149
0.0
100
AcDbLayout
  1
Model
 70
     1
 71
     0
 10
0.0
 20
0.0
 11
594.0
 21
420.0
 12
0.0
 22
0.0
 32
0.0
 14
0.0
 24
0.0
 34
0.0
 15
594.0
 25
420.0
 35
0.0
146
0.0
 13
0.0
 23
0.0
 33
0.0
 16
1.0
 26
0.0
 36
0.0
 17
0.0
 27
1.0
 37
0.0
 76
     0
330
1F
331
29
  0
MATERIAL
  5
1AB
102
{ACAD_REACTORS
330
1A9
102
}
330
1A9
100
AcDbMaterial
  1
ByBlock
  0
MATERIAL
  5
1AA
102
{ACAD_REACTORS
330
1A9
102
}
330
1A9
100
AcDbMaterial
  1
ByLayer
  0
MATERIAL
  5
1AC
102
{ACAD_REACTORS
330
1A9
102
}
330
1A9
100
AcDbMaterial
  1
Global
  0
MLINESTYLE
  5
18
102
{ACAD_REACTORS
330
17
102
}
330
17
100
AcDbMlineStyle
  2
STANDARD
 70
     0
  3

 62
   256
 51
90.0
 52
90.0
 71
     2
 49
0.5
 62
   256
  6
BYLAYER
 49
-0.5
 62
   256
  6
BYLAYER
  0
ACDBPLACEHOLDER
  5
F
102
{ACAD_REACTORS
330
E
102
}
330
E
  0
TABLESTYLE
  5
1C0
102
{ACAD_REACTORS
330
1BF
102
}
330
1BF
100
AcDbTableStyle
  3
Standard
 70
     0
 71
     0
 40
1.5
 41
1.5
280
     0
281
     0
  7
Standard
140
4.5
170
     2
 62
     0
 63
     7
283
     0
 90
      512
 91
        0
  1

274
    -2
284
     1
 64
     0
275
    -2
285
     1
 65
     0
276
    -2
286
     1
 66
     0
277
    -2
287
     1
 67
     0
278
    -2
288
     1
 68
     0
279
    -2
289
     1
 69
     0
  7
Standard
140
6.0
170
     5
 62
     0
 63
     7
283
     0
 90
      512
 91
        0
  1

274
    -2
284
     1
 64
     0
275
    -2
285
     1
 65
     0
276
    -2
286
     1
 66
     0
277
    -2
287
     1
 67
     0
278
    -2
288
     1
 68
     0
279
    -2
289
     1
 69
     0
  7
Standard
140
4.5
170
     5
 62
     0
 63
     7
283
     0
 90
      512
 91
        0
  1

274
    -2
284
     1
 64
     0
275
    -2
285
     1
 65
     0
276
    -2
286
     1
 66
     0
277
    -2
287
     1
 67
     0
278
    -2
288
     1
 68
     0
279
    -2
289
     1
 69
     0
  0
VISUALSTYLE
  5
1B3
102
{ACAD_REACTORS
330
1AD
102
}
330
1AD
100
AcDbVisualStyle
  2
2dWireframe
 70
     4
 71
     0
 72
     2
 73
     0
 90
        0
 40
-0.6
 41
-30.0
 62
     5
 63
     7
421
 16777215
 74
     1
 91
        4
 64
     7
 65
   257
 75
     1
175
     1
 42
1.0
 92
        0
 66
   257
 43
1.0
 76
     1
 77
     6
 78
     2
 67
     7
 79
     5
170
     0
171
     0
290
     0
174
     0
 93
        1
 44
0.0
173
     0
291
     0
 45
0.0
  0
VISUALSTYLE
  5
1B5
102
{ACAD_REACTORS
330
1AD
102
}
330
1AD
100
AcDbVisualStyle
  2
3D Hidden
 70
     6
 71
     1
 72
     2
 73
     2
 90
        0
 40
-0.6
 41
-30.0
 62
     5
 63
     7
421
 16777215
 74
     2
 91
        2
 64
     7
 65
   257
 75
     2
175
     1
 42
40.0
 92
        0
 66
   257
 43
1.0
 76
     1
 77
     6
 78
     2
 67
     7
 79
     3
170
     0
171
     0
290
     0
174
     0
 93
        1
 44
0.0
173
     0
291
     0
 45
0.0
  0
VISUALSTYLE
  5
1B4
102
{ACAD_REACTORS
330
1AD
102
}
330
1AD
100
AcDbVisualStyle
  2
3dWireframe
 70
     5
 71
     0
 72
     2
 73
     0
 90
        0
 40
-0.6
 41
-30.0
 62
     5
 63
     7
421
 16777215
 74
     1
 91
        4
 64
     7
 65
   257
 75
     1
175
     1
 42
1.0
 92
        0
 66
   257
 43
1.0
 76
     1
 77
     6
 78
     2
 67
     7
 79
     5
170
     0
171
     0
290
     0
174
     0
 93
        1
 44
0.0
173
     0
291
     0
 45
0.0
  0
VISUALSTYLE
  5
1B2
102
{ACAD_REACTORS
330
1AD
102
}
330
1AD
100
AcDbVisualStyle
  2
Basic
 70
     7
 71
     1
 72
     0
 73
     1
 90
        0
 40
-0.6
 41
-30.0
 62
     5
 63
     7
421
 16777215
 74
     0
 91
        4
 64
     7
 65
   257
 75
     1
175
     1
 42
1.0
 92
        8
 66
     7
 43
1.0
 76
     1
 77
     6
 78
     2
 67
     7
 79
     5
170
     0
171
     0
290
     0
174
     0
 93
        1
 44
0.0
173
     0
291
     1
 45
0.0
  0
VISUALSTYLE
  5
1B9
102
{ACAD_REACTORS
330
1AD
102
}
330
1AD
100
AcDbVisualStyle
  2
Brighten
 70
    12
 71
     2
 72
     2
 73
     0
 90
        0
 40
-0.6
 41
-30.0
 62
     5
 63
     7
421
 16777215
 74
     1
 91
        4
 64
     7
 65
   257
 75
     1
175
     1
 42
1.0
 92
        8
 66
     7
 43
1.0
 76
     1
 77
     6
 78
     2
 67
     7
 79
     5
170
     0
171
     0
290
     0
174
     0
 93
        1
 44
50.0
173
     0
291
     1
 45
0.0
  0
VISUALSTYLE
  5
1BD
102
{ACAD_REACTORS
330
1AD
102
}
330
1AD
100
AcDbVisualStyle
  2
ColorChange
 70
    16
 71
     2
 72
     2
 73
     3
 90
        0
 40
-0.6
 41
-30.0
 62
     5
 63
     8
421
  8421504
 74
     1
 91
        4
 64
     7
 65
   257
 75
     1
175
     1
 42
1.0
 92
        8
 66
     8
424
  8421504
 43
1.0
 76
     1
 77
     6
 78
     2
 67
     7
 79
     5
170
     0
171
     0
290
     0
174
     0
 93
        1
 44
0.0
173
     0
291
     1
 45
0.0
  0
VISUALSTYLE
  5
1B6
102
{ACAD_REACTORS
330
1AD
102
}
330
1AD
100
AcDbVisualStyle
  2
Conceptual
 70
     9
 71
     3
 72
     2
 73
     0
 90
        0
 40
-0.6
 41
-30.0
 62
     5
 63
     7
421
 16777215
 74
     2
 91
        2
 64
     7
 65
   257
 75
     1
175
     1
 42
40.0
 92
        8
 66
     7
 43
1.0
 76
     1
 77
     6
 78
     2
 67
     7
 79
     3
170
     0
171
     0
290
     0
174
     0
 93
        1
 44
0.0
173
     0
291
     0
 45
0.0
  0
VISUALSTYLE
  5
1B8
102
{ACAD_REACTORS
330
1AD
102
}
330
1AD
100
AcDbVisualStyle
  2
Dim
 70
    11
 71
     2
 72
     2
 73
     0
 90
        0
 40
-0.6
 41
-30.0
 62
     5
 63
     7
421
 16777215
 74
     1
 91
        4
 64
     7
 65
   257
 75
     1
175
     1
 42
1.0
 92
        8
 66
     7
 43
1.0
 76
     1
 77
     6
 78
     2
 67
     7
 79
     5
170
     0
171
     0
290
     0
174
     0
 93
        1
 44
-50.0
173
     0
291
     1
 45
0.0
  0
VISUALSTYLE
  5
1BC
102
{ACAD_REACTORS
330
1AD
102
}
330
1AD
100
AcDbVisualStyle
  2
Facepattern
 70
    15
 71
     2
 72
     2
 73
     0
 90
        0
 40
-0.6
 41
-30.0
 62
     5
 63
     7
421
 16777215
 74
     1
 91
        4
 64
     7
 65
   257
 75
     1
175
     1
 42
1.0
 92
        8
 66
     7
 43
1.0
 76
     1
 77
     6
 78
     2
 67
     7
 79
     5
170
     0
171
     0
290
     0
174
     0
 93
        1
 44
0.0
173
     0
291
     1
 45
0.0
  0
VISUALSTYLE
  5
1AE
102
{ACAD_REACTORS
330
1AD
102
}
330
1AD
100
AcDbVisualStyle
  2
Flat
 70
     0
 71
     2
 72
     1
 73
     1
 90
        2
 40
-0.6
 41
30.0
 62
     5
 63
     7
421
 16777215
 74
     0
 91
        4
 64
     7
 65
   257
 75
     1
175
     1
 42
1.0
 92
        8
 66
     7
 43
1.0
 76
     1
 77
     6
 78
     2
 67
     7
 79
     5
170
     0
171
     0
290
     0
174
     0
 93
       13
 44
0.0
173
     0
291
     1
 45
0.0
  0
VISUALSTYLE
  5
1AF
102
{ACAD_REACTORS
330
1AD
102
}
330
1AD
100
AcDbVisualStyle
  2
FlatWithEdges
 70
     1
 71
     2
 72
     1
 73
     1
 90
        2
 40
-0.6
 41
30.0
 62
     5
 63
     7
421
 16777215
 74
     1
 91
        4
 64
     7
 65
   257
 75
     1
175
     1
 42
1.0
 92
        0
 66
   257
 43
1.0
 76
     1
 77
     6
 78
     2
 67
     7
 79
     5
170
     0
171
     0
290
     0
174
     0
 93
       13
 44
0.0
173
     0
291
     1
 45
0.0
  0
VISUALSTYLE
  5
1B0
102
{ACAD_REACTORS
330
1AD
102
}
330
1AD
100
AcDbVisualStyle
  2
Gouraud
 70
     2
 71
     2
 72
     2
 73
     1
 90
        2
 40
-0.6
 41
30.0
 62
     5
 63
     7
421
 16777215
 74
     0
 91
        4
 64
     7
 65
   257
 75
     1
175
     1
 42
1.0
 92
        0
 66
     7
 43
1.0
 76
     1
 77
     6
 78
     2
 67
     7
 79
     5
170
     0
171
     0
290
     0
174
     0
 93
       13
 44
0.0
173
     0
291
     1
 45
0.0
  0
VISUALSTYLE
  5
1B1
102
{ACAD_REACTORS
330
1AD
102
}
330
1AD
100
AcDbVisualStyle
  2
GouraudWithEdges
 70
     3
 71
     2
 72
     2
 73
     1
 90
        2
 40
-0.6
 41
30.0
 62
     5
 63
     7
421
 16777215
 74
     1
 91
        4
 64
     7
 65
   257
 75
     1
175
     1
 42
1.0
 92
        0
 66
   257
 43
1.0
 76
     1
 77
     6
 78
     2
 67
     7
 79
     5
170
     0
171
     0
290
     0
174
     0
 93
       13
 44
0.0
173
     0
291
     1
 45
0.0
  0
VISUALSTYLE
  5
1BB
102
{ACAD_REACTORS
330
1AD
102
}
330
1AD
100
AcDbVisualStyle
  2
Linepattern
 70
    14
 71
     2
 72
     2
 73
     0
 90
        0
 40
-0.6
 41
-30.0
 62
     5
 63
     7
421
 16777215
 74
     1
 91
        4
 64
     7
 65
   257
 75
     7
175
     7
 42
1.0
 92
        8
 66
     7
 43
1.0
 76
     1
 77
     6
 78
     2
 67
     7
 79
     5
170
     0
171
     0
290
     0
174
     0
 93
        1
 44
0.0
173
     0
291
     1
 45
0.0
  0
VISUALSTYLE
  5
1B7
102
{ACAD_REACTORS
330
1AD
102
}
330
1AD
100
AcDbVisualStyle
  2
Realistic
 70
     8
 71
     2
 72
     2
 73
     0
 90
        0
 40
-0.6
 41
-30.0
 62
     5
 63
     7
421
 16777215
 74
     1
 91
        0
 64
     7
 65
   257
 75
     1
175
     1
 42
1.0
 92
        8
 66
     8
424
  7895160
 43
1.0
 76
     1
 77
     6
 78
     2
 67
     7
 79
     5
170
     0
171
     0
290
     0
174
     0
 93
       13
 44
0.0
173
     0
291
     0
 45
0.0
  0
VISUALSTYLE
  5
1BA
102
{ACAD_REACTORS
330
1AD
102
}
330
1AD
100
AcDbVisualStyle
  2
Thicken
 70
    13
 71
     2
 72
     2
 73
     0
 90
        0
 40
-0.6
 41
-30.0
 62
     5
 63
     7
421
 16777215
 74
     1
 91
        4
 64
     7
 65
   257
 75
     1
175
     1
 42
1.0
 92
       12
 66
     7
 43
1.0
 76
     1
 77
     6
 78
     2
 67
     7
 79
     5
170
     0
171
     0
290
     0
174
     0
 93
        1
 44
0.0
173
     0
291
     1
 45
0.0
  0
DICTIONARYVAR
  5
222
102
{ACAD_REACTORS
330
221
102
}
330
221
100
DictionaryVariables
280
     0
  1
STANDARD
  0
ENDSEC
  0
EOF
